{"glyphs":{"0":{"ha":1451,"x_min":136,"x_max":1315,"o":"m 1307 769 q 1032 1164 1198 1139 q 800 1190 866 1190 q 500 1118 629 1190 q 136 540 136 906 q 159 357 136 437 q 618 -22 304 -22 l 627 -22 q 848 18 726 -22 q 1315 642 1315 222 q 1307 769 1315 688 m 452 532 l 468 618 q 777 848 541 848 q 998 650 998 848 q 966 516 990 566 q 642 302 847 302 l 610 302 q 452 532 494 302 "},"1":{"ha":849,"x_min":136,"x_max":713,"o":"m 539 1220 q 379 1162 437 1220 q 228 1083 321 1105 q 136 935 136 1061 q 286 777 160 777 l 318 777 l 357 785 q 278 128 310 307 q 420 -30 300 -30 l 452 -30 q 603 113 553 -30 q 713 1038 650 651 q 539 1220 677 1220 "},"2":{"ha":1419,"x_min":136,"x_max":1283,"o":"m 666 1213 q 389 1157 524 1213 q 176 943 176 1054 q 326 777 195 777 l 342 777 q 420 801 380 777 q 618 888 511 888 l 698 888 q 761 872 732 888 l 769 872 q 555 595 769 764 q 136 184 136 320 q 334 1 136 32 q 911 49 748 49 q 1125 41 979 49 q 1283 184 1283 83 l 1283 239 q 1149 374 1283 332 q 761 357 1042 366 q 1085 840 1085 616 l 1085 888 q 1054 1023 1085 975 q 666 1213 945 1213 "},"3":{"ha":1300,"x_min":136,"x_max":1164,"o":"m 777 1196 q 342 1165 595 1196 q 136 1015 136 1152 l 136 991 q 310 840 136 867 q 618 872 518 872 l 627 872 l 627 864 q 437 627 437 738 q 539 469 437 531 q 777 437 739 460 q 689 316 777 339 q 561 292 602 292 q 468 318 505 292 q 326 421 409 421 l 302 421 q 144 239 172 421 l 144 231 q 555 -14 203 -14 q 793 33 674 -14 q 1101 421 1101 172 l 1101 437 q 943 706 1101 610 l 943 713 q 1164 999 1164 904 l 1164 1030 q 990 1196 1164 1160 l 777 1196 "},"4":{"ha":1490,"x_min":136,"x_max":1354,"o":"m 817 1204 l 777 1204 q 420 888 711 1204 q 136 540 136 674 q 215 381 136 462 q 793 318 304 318 l 800 318 q 785 144 800 286 q 943 -38 808 -38 l 959 -38 q 1097 32 1069 -17 q 1125 273 1125 81 l 1125 310 l 1220 310 q 1354 460 1324 310 l 1354 469 q 1173 627 1354 611 l 1149 627 l 1149 666 q 1014 801 1149 760 l 975 801 q 824 635 871 801 l 610 635 q 705 730 610 641 q 959 1038 959 950 l 959 1062 q 817 1204 959 1177 "},"5":{"ha":1253,"x_min":136,"x_max":1117,"o":"m 983 1228 q 674 1213 741 1213 l 420 1213 q 240 1152 306 1213 q 136 761 175 1092 q 302 524 136 591 q 793 452 663 524 l 785 437 q 571 318 732 357 q 373 176 373 294 l 373 120 q 532 -14 373 15 q 698 18 593 -14 q 1117 445 1117 177 l 1117 452 q 1085 587 1117 522 q 476 832 962 832 l 468 832 l 476 888 q 761 896 614 888 q 1109 1062 1109 896 l 1109 1086 q 983 1228 1109 1190 "},"6":{"ha":1339,"x_min":136,"x_max":1204,"o":"m 895 1252 q 539 1157 745 1252 q 136 492 136 885 q 144 397 144 410 q 603 -14 228 -14 l 674 -14 q 1204 413 1204 77 q 1173 555 1204 489 q 682 832 1064 832 l 666 832 l 627 825 q 943 927 727 927 q 1109 1086 1109 943 q 935 1252 1109 1223 l 895 1252 m 460 469 l 705 516 q 880 413 880 501 l 880 405 q 618 302 795 302 l 595 302 q 460 445 481 302 l 460 469 "},"7":{"ha":1356,"x_min":136,"x_max":1220,"o":"m 1038 1252 q 397 1181 743 1204 q 136 1023 136 1181 l 136 1006 q 271 856 166 856 l 777 896 q 366 168 392 269 q 524 -14 381 -14 l 539 -14 q 666 49 602 -14 q 919 524 768 290 q 1220 1070 1220 975 q 1038 1252 1220 1209 "},"8":{"ha":1253,"x_min":136,"x_max":1117,"o":"m 737 1260 q 571 1244 709 1260 q 136 840 136 1121 q 302 571 136 665 q 136 223 136 449 q 159 128 144 160 q 444 -38 235 -38 l 476 -38 q 579 -30 541 -38 q 1109 342 1109 46 q 966 627 1109 506 q 1117 927 1117 796 l 1117 991 l 1109 1038 q 737 1260 1017 1260 m 468 840 q 699 939 571 939 q 793 927 745 939 q 658 769 772 867 q 468 840 613 769 m 484 286 q 690 421 513 326 q 777 357 762 390 l 777 350 q 484 279 609 282 l 484 286 "},"9":{"ha":1213,"x_min":136,"x_max":1078,"o":"m 722 1244 q 515 1213 609 1234 q 136 793 136 1084 q 152 682 136 742 q 587 342 284 342 l 642 342 l 698 350 q 674 136 674 184 l 674 113 q 817 -46 712 -46 q 983 49 932 -46 l 1078 935 l 1061 1046 q 722 1244 989 1244 m 460 793 q 713 920 469 899 l 753 920 q 737 698 753 861 q 595 666 673 666 q 460 785 460 688 l 460 793 "},"\u0000":{"ha":0,"x_min":0,"x_max":0,"o":""}," ":{"ha":555,"x_min":0,"x_max":0,"o":""}," ":{"ha":555,"x_min":0,"x_max":0,"o":""},"!":{"ha":722,"x_min":136,"x_max":587,"o":"m 420 1252 q 286 1173 344 1252 q 144 532 156 846 q 302 350 168 350 l 318 350 q 476 508 476 379 l 476 571 q 587 1094 476 770 q 437 1252 563 1252 l 420 1252 m 302 271 q 136 96 165 271 q 286 -77 136 -54 l 334 -77 q 492 89 463 -77 l 492 144 q 318 271 458 271 l 302 271 "},"\"":{"ha":1015,"x_min":136,"x_max":880,"o":"m 286 1213 q 136 1046 165 1213 l 136 856 q 144 769 136 823 q 286 642 188 642 l 310 642 q 460 896 460 642 l 460 1038 q 326 1213 439 1213 l 286 1213 m 705 1213 q 610 1173 654 1213 q 508 808 574 1173 q 658 650 532 650 l 666 650 q 786 682 748 650 q 880 1054 825 713 q 737 1213 856 1213 l 705 1213 "},"#":{"ha":1640,"x_min":136,"x_max":1505,"o":"m 1220 1244 q 1054 991 1077 1244 q 935 983 975 983 l 864 983 l 864 1086 q 698 1236 864 1189 q 587 1206 634 1236 q 500 959 539 1176 l 437 959 q 159 793 159 959 q 318 635 159 666 l 349 635 l 429 642 q 405 540 429 625 q 286 547 386 540 q 136 397 159 547 l 136 381 q 310 223 136 250 l 318 223 q 286 81 286 131 l 286 65 q 444 -85 286 -52 q 666 247 631 -85 l 871 247 q 832 73 840 129 q 983 -94 857 -94 l 1022 -94 q 1097 -63 1046 -94 q 1196 247 1148 -33 l 1228 247 q 1299 239 1256 247 q 1457 381 1457 280 l 1457 421 q 1276 571 1436 571 q 1299 674 1276 585 l 1307 674 q 1505 856 1505 690 q 1378 1006 1505 957 l 1386 1101 q 1244 1244 1386 1213 l 1220 1244 m 761 659 q 975 666 954 666 q 951 564 975 656 l 737 564 q 761 659 737 585 "},"$":{"ha":1348,"x_min":136,"x_max":1212,"o":"m 477 1137 q 405 1101 441 1122 q 136 698 136 914 l 136 674 q 381 389 136 471 q 864 286 864 334 q 571 215 738 215 l 397 215 q 247 57 274 215 q 437 -109 247 -88 l 465 -109 q 463 -168 463 -141 q 496 -256 465 -222 q 589 -301 527 -289 l 604 -304 q 633 -307 619 -307 q 775 -216 772 -281 q 787 -77 778 -152 q 1212 286 1212 28 l 1212 334 q 1093 524 1212 438 q 460 706 997 640 q 745 872 539 872 l 785 872 q 927 737 785 778 q 1109 920 1081 737 q 1093 1015 1109 960 q 802 1195 1018 1181 q 804 1228 804 1211 q 792 1320 804 1272 q 668 1387 777 1387 l 652 1387 q 537 1331 589 1387 q 477 1137 485 1274 "},"%":{"ha":1371,"x_min":136,"x_max":1236,"o":"m 1078 1086 q 753 872 1002 1086 q 251 365 366 519 q 136 128 136 211 l 136 120 q 278 -30 162 -30 l 310 -30 q 587 262 410 -30 q 1030 698 784 521 q 1236 911 1236 810 l 1236 935 q 1078 1086 1236 1059 m 373 1054 q 168 864 168 1004 q 248 709 191 730 q 360 687 305 687 q 405 690 382 687 q 563 840 512 690 l 563 896 q 405 1054 563 1023 l 373 1054 m 911 469 q 737 271 776 469 q 911 96 737 125 l 943 96 q 1109 286 1057 96 l 1109 294 q 951 469 1086 469 l 911 469 "},"&":{"ha":1530,"x_min":136,"x_max":1394,"o":"m 642 1220 q 223 848 223 1172 q 286 635 223 758 q 136 357 136 492 l 136 279 q 650 -22 230 -22 q 1022 113 880 -22 q 1220 -30 1139 -30 l 1252 -30 q 1394 113 1352 -30 q 1244 357 1394 227 q 1038 579 1159 579 l 1014 579 q 888 508 948 579 q 666 294 831 294 q 460 342 550 294 q 547 397 494 397 q 761 564 761 422 l 761 579 q 698 706 761 645 q 547 848 547 762 q 690 903 565 903 l 745 896 l 745 832 q 888 690 745 726 q 1078 888 1042 690 l 1078 903 q 1069 975 1078 932 q 737 1220 981 1220 l 642 1220 "},"'":{"ha":596,"x_min":136,"x_max":460,"o":"m 302 1252 q 183 1204 250 1252 q 136 840 136 1155 q 286 682 163 682 l 302 682 q 452 825 452 711 q 460 1125 452 907 l 460 1133 q 310 1252 412 1252 l 302 1252 "},"(":{"ha":960,"x_min":136,"x_max":824,"o":"m 666 1260 q 468 1189 616 1260 q 136 587 136 928 l 136 516 q 191 294 136 425 q 547 -30 384 -30 l 563 -30 q 722 128 690 -30 q 682 247 722 178 q 460 555 460 377 l 460 564 q 627 903 460 748 q 824 1101 824 977 q 666 1260 824 1236 "},")":{"ha":944,"x_min":136,"x_max":808,"o":"m 286 1276 q 136 1141 136 1245 l 136 1094 q 366 872 136 1010 q 476 659 470 757 l 476 603 q 326 350 476 496 q 144 152 144 260 q 294 -14 172 -14 l 326 -14 q 452 41 381 -14 q 808 627 808 306 q 674 1015 808 808 q 302 1276 473 1235 l 286 1276 "},"*":{"ha":1276,"x_min":136,"x_max":1141,"o":"m 674 1125 q 627 1118 632 1118 q 508 935 508 1079 l 508 888 q 310 975 347 975 l 271 975 q 136 817 165 975 q 254 659 136 718 q 159 524 195 650 q 294 357 184 357 l 334 357 q 452 397 371 357 q 595 247 452 291 l 610 247 q 769 389 769 274 q 880 350 842 350 q 1046 500 1046 369 q 966 650 1025 642 q 1141 825 1141 713 q 1006 983 1109 983 l 983 983 q 832 935 910 983 q 674 1125 814 1125 "},"+":{"ha":1451,"x_min":136,"x_max":1315,"o":"m 698 1133 q 539 975 571 1133 l 555 777 l 555 769 q 413 761 457 769 q 136 595 136 761 l 136 587 q 278 429 174 429 q 571 460 347 429 q 555 199 555 224 q 690 57 593 57 l 761 57 q 888 286 888 92 l 888 469 q 1156 452 1022 469 l 1196 460 q 1315 618 1315 511 q 1307 666 1307 661 q 1093 785 1259 785 l 871 785 l 871 896 q 713 1133 871 1133 l 698 1133 "},",":{"ha":651,"x_min":136,"x_max":515,"o":"m 318 508 q 159 357 159 481 l 159 334 q 183 247 159 308 q 136 113 136 138 l 136 89 q 286 -62 136 -35 l 310 -62 q 373 -46 345 -62 q 515 239 515 65 l 515 262 q 318 508 479 508 "},"-":{"ha":1308,"x_min":136,"x_max":1173,"o":"m 840 785 q 302 737 606 785 q 136 579 136 716 q 294 421 136 448 l 318 421 q 729 469 597 469 q 1014 452 888 469 q 1054 460 1040 458 q 1173 611 1173 509 l 1173 618 q 935 785 1173 785 l 840 785 "},".":{"ha":644,"x_min":136,"x_max":508,"o":"m 326 469 q 136 294 174 469 q 159 215 136 278 q 334 113 212 113 l 357 113 q 508 294 490 113 q 326 469 508 437 "},"/":{"ha":1110,"x_min":136,"x_max":975,"o":"m 800 1228 q 571 1023 705 1228 q 136 168 136 299 l 136 128 q 278 -14 136 13 l 302 -14 q 420 49 361 -14 q 800 793 552 387 q 975 1054 975 981 l 975 1070 q 832 1228 975 1190 l 800 1228 "},":":{"ha":627,"x_min":136,"x_max":492,"o":"m 278 848 q 144 698 174 848 l 144 674 q 310 508 144 545 l 326 508 q 484 659 484 532 l 484 674 q 334 848 442 848 l 278 848 m 310 476 l 294 476 q 136 302 136 418 q 144 262 136 276 q 310 120 195 120 l 326 120 q 492 286 455 120 l 492 326 q 310 476 492 437 "},";":{"ha":667,"x_min":136,"x_max":532,"o":"m 342 848 q 144 706 144 823 l 144 650 q 318 492 183 508 l 334 492 q 508 674 467 492 q 492 730 508 690 q 342 848 427 848 m 366 460 q 199 223 199 460 q 136 89 136 139 l 136 73 q 294 -85 136 -52 q 328 -89 311 -89 q 442 -41 389 -89 q 532 262 508 18 q 508 359 532 289 q 366 460 484 429 "},"<":{"ha":983,"x_min":136,"x_max":848,"o":"m 674 959 q 634 951 648 959 q 397 817 534 886 q 136 603 136 742 l 136 587 q 381 342 136 460 q 634 208 587 208 l 666 208 q 808 350 770 208 q 627 571 808 488 l 627 579 q 848 801 848 669 l 848 808 q 705 959 822 959 l 674 959 "},"=":{"ha":1086,"x_min":136,"x_max":951,"o":"m 737 1006 q 271 975 587 1006 q 136 825 136 933 l 136 808 q 294 659 136 682 q 595 690 492 690 q 785 682 673 690 q 927 817 927 723 l 927 888 q 737 1006 878 1006 m 563 587 l 500 587 q 176 413 176 587 q 334 255 176 281 q 484 271 350 255 l 563 271 q 785 255 693 271 q 951 413 951 284 q 903 532 951 458 q 563 587 848 587 "},">":{"ha":1039,"x_min":136,"x_max":903,"o":"m 294 999 q 136 840 167 999 q 413 603 136 695 l 413 595 q 191 366 191 481 l 191 342 q 334 199 191 227 l 357 199 q 595 342 427 199 q 903 595 903 491 l 903 642 q 888 713 903 663 q 515 903 835 799 q 302 999 340 999 l 294 999 "},"?":{"ha":1324,"x_min":136,"x_max":1188,"o":"m 682 1189 q 524 1181 631 1189 q 136 943 136 1131 q 294 785 136 812 l 318 785 q 650 872 475 872 l 674 872 q 817 856 737 872 l 817 848 q 484 500 484 739 l 484 484 q 627 318 518 318 l 674 318 q 824 508 787 318 q 1188 825 1188 621 l 1188 872 q 1173 943 1188 892 q 682 1189 1077 1176 m 666 262 q 500 104 500 228 l 500 49 q 666 -77 552 -77 q 864 89 864 -55 l 864 96 q 698 262 864 231 l 666 262 "},"@":{"ha":1601,"x_min":136,"x_max":1466,"o":"m 935 1196 q 532 1062 733 1196 q 136 452 136 769 q 159 326 144 389 q 729 1 288 1 l 824 1 q 1466 255 1466 75 l 1466 286 q 1315 437 1466 408 l 1291 437 q 753 310 962 310 q 591 327 682 310 q 475 393 500 344 q 450 471 450 441 q 492 587 450 524 q 919 880 707 880 q 1038 840 1019 880 l 1038 817 q 871 706 937 706 q 793 722 865 706 q 627 564 627 695 l 627 555 q 895 381 629 381 l 903 381 q 1362 848 1362 525 l 1362 856 q 1347 943 1362 912 q 951 1196 1240 1196 l 935 1196 "},"A":{"ha":1482,"x_min":136,"x_max":1347,"o":"m 753 1190 q 634 1135 695 1190 q 397 668 593 1099 q 136 66 136 106 l 136 27 q 271 -108 136 -68 l 310 -108 q 508 138 414 -108 q 587 134 547 134 q 966 209 778 134 q 1188 -37 1046 -37 q 1347 106 1347 5 l 1347 170 q 1006 882 1196 448 q 777 1190 911 1190 l 753 1190 m 745 668 q 845 494 761 668 q 713 469 775 469 q 666 473 689 469 l 659 473 l 745 668 "},"a":{"ha":1482,"x_min":136,"x_max":1347,"o":"m 753 1190 l 777 1190 q 1006 882 911 1190 q 1347 170 1196 448 l 1347 106 q 1188 -37 1347 5 q 966 209 1046 -37 q 587 134 778 134 q 508 138 547 134 q 310 -108 414 -108 l 271 -108 q 136 27 136 -68 l 136 66 q 397 668 136 106 q 634 1135 593 1099 q 753 1190 695 1190 m 745 668 l 659 473 l 666 473 q 713 469 689 469 q 845 494 775 469 q 745 668 761 668 "},"B":{"ha":1411,"x_min":136,"x_max":1276,"o":"m 603 1252 q 437 1228 583 1252 q 136 848 136 1131 l 136 635 q 176 96 136 343 q 318 -62 219 -62 q 405 -54 362 -62 q 555 -70 468 -70 l 571 -70 q 848 -38 678 -70 q 1276 374 1276 101 q 1069 690 1276 568 q 1101 848 1093 761 q 1078 975 1101 888 q 603 1252 955 1252 m 460 713 l 460 825 q 603 927 460 927 q 777 848 777 918 q 460 713 777 735 m 468 374 q 785 421 688 421 l 808 421 q 943 374 911 421 q 587 255 840 255 l 515 255 q 468 374 468 255 "},"b":{"ha":1411,"x_min":136,"x_max":1276,"o":"m 603 1252 q 1078 975 955 1252 q 1101 848 1101 888 q 1069 690 1093 761 q 1276 374 1276 568 q 848 -38 1276 101 q 571 -70 678 -70 l 555 -70 q 405 -54 468 -70 q 318 -62 362 -62 q 176 96 219 -62 q 136 635 136 343 l 136 848 q 437 1228 136 1131 q 603 1252 583 1252 m 460 713 q 777 848 777 735 q 603 927 777 918 q 460 825 460 927 l 460 713 m 468 374 q 515 255 468 255 l 587 255 q 943 374 840 255 q 808 421 911 421 l 785 421 q 468 374 688 421 "},"C":{"ha":1213,"x_min":136,"x_max":1078,"o":"m 753 1220 q 539 1173 667 1220 q 136 516 136 971 q 183 271 136 397 q 698 -77 318 -77 q 892 -62 825 -77 q 1009 -1 959 -46 q 1059 95 1059 43 q 1034 196 1059 138 q 908 291 994 291 q 847 281 880 291 q 644 245 735 245 q 610 247 627 245 q 452 516 452 322 q 460 579 452 523 q 769 896 523 896 l 777 896 q 919 793 822 793 q 1078 959 1048 793 q 793 1220 1078 1182 l 753 1220 "},"c":{"ha":1213,"x_min":136,"x_max":1078,"o":"m 753 1220 l 793 1220 q 1078 959 1078 1182 q 919 793 1048 793 q 777 896 822 793 l 769 896 q 460 579 523 896 q 452 516 452 523 q 610 247 452 322 q 644 245 627 245 q 847 281 735 245 q 908 291 880 291 q 1034 196 994 291 q 1059 95 1059 138 q 1009 -1 1059 43 q 892 -62 959 -46 q 698 -77 825 -77 q 183 271 318 -77 q 136 516 136 397 q 539 1173 136 971 q 753 1220 667 1220 "},"D":{"ha":1356,"x_min":136,"x_max":1220,"o":"m 579 1276 q 136 777 136 1276 q 144 152 144 366 q 278 -46 144 -22 l 334 -46 q 381 -30 355 -46 q 555 -54 417 -46 q 832 1 690 -54 q 1220 603 1220 214 q 1125 959 1220 761 q 579 1276 908 1276 m 460 745 q 468 840 460 800 q 563 951 468 951 l 587 951 q 658 943 615 951 q 895 627 895 854 l 895 587 q 880 492 895 547 q 579 271 784 271 q 468 286 511 271 q 460 745 460 682 "},"d":{"ha":1356,"x_min":136,"x_max":1220,"o":"m 579 1276 q 1125 959 908 1276 q 1220 603 1220 761 q 832 1 1220 214 q 555 -54 690 -54 q 381 -30 417 -46 q 334 -46 355 -46 l 278 -46 q 144 152 144 -22 q 136 777 144 366 q 579 1276 136 1276 m 460 745 q 468 286 460 682 q 579 271 511 271 q 880 492 784 271 q 895 587 895 547 l 895 627 q 658 943 895 854 q 587 951 615 951 l 563 951 q 468 840 468 951 q 460 745 460 800 "},"E":{"ha":1237,"x_min":136,"x_max":1101,"o":"m 856 1204 q 389 1157 522 1204 q 136 445 136 1046 q 159 191 136 318 q 413 -94 215 -94 q 880 -30 675 -54 q 1085 128 1061 -30 q 943 294 1052 294 q 476 239 873 294 q 452 413 452 408 q 705 429 629 429 q 935 587 935 429 q 777 753 909 753 q 484 737 700 753 l 476 737 l 500 825 q 880 888 500 888 l 966 888 q 1101 1023 1060 888 l 1101 1070 q 966 1204 1101 1163 l 856 1204 "},"e":{"ha":1237,"x_min":136,"x_max":1101,"o":"m 856 1204 l 966 1204 q 1101 1070 1101 1163 l 1101 1023 q 966 888 1060 888 l 880 888 q 500 825 500 888 l 476 737 l 484 737 q 777 753 700 753 q 935 587 909 753 q 705 429 935 429 q 452 413 629 429 q 476 239 452 408 q 943 294 873 294 q 1085 128 1052 294 q 880 -30 1061 -30 q 413 -94 675 -54 q 159 191 215 -94 q 136 445 136 318 q 389 1157 136 1046 q 856 1204 522 1204 "},"F":{"ha":1244,"x_min":136,"x_max":1109,"o":"m 674 1244 q 349 1189 484 1244 q 136 808 136 1097 l 136 713 q 223 33 223 117 q 373 -85 273 -85 l 381 -85 q 547 81 505 -85 q 500 429 547 171 l 500 437 l 817 437 q 975 595 947 437 q 824 753 947 753 l 452 753 q 460 856 460 851 q 642 927 460 914 q 951 920 817 920 l 959 920 q 1109 1054 1109 950 l 1109 1086 q 1046 1204 1109 1161 q 713 1244 1046 1244 l 674 1244 "},"f":{"ha":1244,"x_min":136,"x_max":1109,"o":"m 674 1244 l 713 1244 q 1046 1204 1046 1244 q 1109 1086 1109 1161 l 1109 1054 q 959 920 1109 950 l 951 920 q 642 927 817 920 q 460 856 460 914 q 452 753 460 851 l 824 753 q 975 595 947 753 q 817 437 947 437 l 500 437 l 500 429 q 547 81 547 171 q 381 -85 505 -85 l 373 -85 q 223 33 273 -85 q 136 713 223 117 l 136 808 q 349 1189 136 1097 q 674 1244 484 1244 "},"G":{"ha":1442,"x_min":136,"x_max":1307,"o":"m 753 1220 q 539 1173 667 1220 q 136 516 136 971 q 183 271 136 397 q 698 -77 318 -77 q 959 -46 825 -77 q 1307 413 1307 60 l 1299 492 q 966 706 1233 706 l 911 706 q 634 540 634 706 q 817 374 634 394 q 966 381 892 381 l 983 381 q 713 239 983 239 l 705 239 l 610 247 q 452 516 452 322 q 460 579 452 523 q 769 896 523 896 l 777 896 q 919 793 822 793 q 1078 959 1048 793 q 793 1220 1078 1182 l 753 1220 "},"g":{"ha":1442,"x_min":136,"x_max":1307,"o":"m 753 1220 l 793 1220 q 1078 959 1078 1182 q 919 793 1048 793 q 777 896 822 793 l 769 896 q 460 579 523 896 q 452 516 452 523 q 610 247 452 322 l 705 239 l 713 239 q 983 381 983 239 l 966 381 q 817 374 892 381 q 634 540 634 394 q 911 706 634 706 l 966 706 q 1299 492 1233 706 l 1307 413 q 959 -46 1307 60 q 698 -77 825 -77 q 183 271 318 -77 q 136 516 136 397 q 539 1173 136 971 q 753 1220 667 1220 "},"H":{"ha":1364,"x_min":136,"x_max":1228,"o":"m 302 1204 q 144 1038 173 1204 q 159 848 159 928 q 136 104 159 683 q 294 -46 136 -16 q 460 136 439 -46 q 468 476 460 231 q 690 500 610 500 q 903 476 869 492 q 880 120 880 243 q 1030 -14 880 18 l 1046 -14 q 1156 33 1101 -14 q 1228 840 1228 33 q 1054 1204 1228 1204 l 1030 1204 q 888 1062 911 1204 l 888 1030 l 919 801 q 745 808 800 808 l 729 808 q 484 793 596 808 l 476 793 l 476 920 q 310 1204 476 1204 l 302 1204 "},"h":{"ha":1364,"x_min":136,"x_max":1228,"o":"m 302 1204 l 310 1204 q 476 920 476 1204 l 476 793 l 484 793 q 729 808 596 808 l 745 808 q 919 801 800 808 l 888 1030 l 888 1062 q 1030 1204 911 1204 l 1054 1204 q 1228 840 1228 1204 q 1156 33 1228 33 q 1046 -14 1101 -14 l 1030 -14 q 880 120 880 18 q 903 476 880 243 q 690 500 869 492 q 468 476 610 500 q 460 136 460 231 q 294 -46 439 -46 q 136 104 136 -16 q 159 848 159 683 q 144 1038 159 928 q 302 1204 173 1204 "},"I":{"ha":635,"x_min":136,"x_max":500,"o":"m 294 1196 q 136 1038 170 1196 q 183 706 183 840 q 152 120 183 587 q 302 -30 152 -3 l 318 -30 q 437 25 376 -30 q 500 690 500 104 q 484 927 500 783 q 294 1196 458 1196 "},"i":{"ha":635,"x_min":136,"x_max":500,"o":"m 294 1196 q 484 927 458 1196 q 500 690 500 783 q 437 25 500 104 q 318 -30 376 -30 l 302 -30 q 152 120 152 -3 q 183 706 183 587 q 136 1038 183 840 q 294 1196 170 1196 "},"J":{"ha":1222,"x_min":136,"x_max":1086,"o":"m 1024 899 q 1086 1040 1072 938 q 834 1222 1086 1222 q 445 1190 628 1222 q 185 1008 185 1166 q 322 842 201 842 q 591 873 447 854 q 695 882 650 879 q 722 666 722 746 q 627 262 722 312 l 595 262 q 460 357 503 262 l 468 452 q 318 618 446 618 l 302 618 q 136 374 136 618 q 159 231 136 338 q 603 -62 313 -62 q 800 -14 709 -62 q 1038 674 1038 113 q 1024 899 1038 803 "},"j":{"ha":1222,"x_min":136,"x_max":1086,"o":"m 1024 899 q 1038 674 1038 803 q 800 -14 1038 113 q 603 -62 709 -62 q 159 231 313 -62 q 136 374 136 338 q 302 618 136 618 l 318 618 q 468 452 446 618 l 460 357 q 595 262 503 262 l 627 262 q 722 666 722 312 q 695 882 722 746 q 591 873 650 879 q 322 842 447 854 q 185 1008 201 842 q 445 1190 185 1166 q 834 1222 628 1222 q 1086 1040 1086 1222 q 1024 899 1072 938 "},"K":{"ha":1348,"x_min":136,"x_max":1212,"o":"m 357 1189 l 342 1189 q 199 1006 199 1162 l 199 793 q 136 81 199 506 q 286 -77 163 -77 l 326 -77 q 430 -20 405 -58 q 484 262 455 17 q 1030 -77 947 -77 l 1054 -77 q 1204 81 1177 -77 q 1156 199 1204 123 q 698 508 847 379 q 1212 975 1212 853 l 1212 1030 q 1085 1157 1212 1121 l 1030 1157 q 951 1118 951 1137 q 515 769 677 839 l 515 1054 q 357 1189 474 1189 "},"k":{"ha":1348,"x_min":136,"x_max":1212,"o":"m 357 1189 q 515 1054 474 1189 l 515 769 q 951 1118 677 839 q 1030 1157 951 1137 l 1085 1157 q 1212 1030 1212 1121 l 1212 975 q 698 508 1212 853 q 1156 199 847 379 q 1204 81 1204 123 q 1054 -77 1177 -77 l 1030 -77 q 484 262 947 -77 q 430 -20 455 17 q 326 -77 405 -58 l 286 -77 q 136 81 163 -77 q 199 793 199 506 l 199 1006 q 342 1189 199 1162 l 357 1189 "},"L":{"ha":1071,"x_min":136,"x_max":935,"o":"m 349 1173 q 217 1111 273 1173 q 136 310 161 1050 l 136 302 q 152 160 136 239 q 429 -46 227 -46 l 444 -46 q 935 184 935 20 q 927 247 935 216 q 785 357 886 357 l 769 357 q 460 279 481 279 q 452 342 460 286 q 508 1006 452 574 q 349 1173 481 1173 "},"l":{"ha":1071,"x_min":136,"x_max":935,"o":"m 349 1173 q 508 1006 481 1173 q 452 342 452 574 q 460 279 460 286 q 769 357 481 279 l 785 357 q 927 247 886 357 q 935 184 935 216 q 444 -46 935 20 l 429 -46 q 152 160 227 -46 q 136 302 136 239 l 136 310 q 217 1111 161 1050 q 349 1173 273 1173 "},"M":{"ha":1546,"x_min":136,"x_max":1410,"o":"m 1164 1213 q 753 785 936 1213 l 745 785 q 373 1189 532 1189 l 342 1189 q 177 1090 215 1165 q 136 627 138 1016 q 144 199 136 473 q 302 -77 144 -77 l 326 -77 q 468 65 430 -77 q 452 405 452 225 l 452 650 l 460 650 q 745 366 600 366 q 888 413 824 366 q 1085 745 987 518 l 1093 745 l 1093 737 q 1061 136 1093 653 q 1220 -14 1061 20 q 1354 57 1291 -14 q 1410 777 1410 136 l 1410 856 q 1164 1213 1369 1213 "},"m":{"ha":1546,"x_min":136,"x_max":1410,"o":"m 1164 1213 q 1410 856 1369 1213 l 1410 777 q 1354 57 1410 136 q 1220 -14 1291 -14 q 1061 136 1061 20 q 1093 737 1093 653 l 1093 745 l 1085 745 q 888 413 987 518 q 745 366 824 366 q 460 650 600 366 l 452 650 l 452 405 q 468 65 452 225 q 326 -77 430 -77 l 302 -77 q 144 199 144 -77 q 136 627 136 473 q 177 1090 138 1016 q 342 1189 215 1165 l 373 1189 q 745 785 532 1189 l 753 785 q 1164 1213 936 1213 "},"N":{"ha":1388,"x_min":136,"x_max":1252,"o":"m 1093 1165 l 1046 1162 q 927 1015 966 1157 q 931 685 927 839 q 935 445 935 531 q 761 706 871 555 q 405 1023 564 1023 q 302 991 347 1015 q 136 492 136 924 l 136 405 q 302 -54 144 -54 l 326 -54 q 484 86 484 -17 l 452 579 q 658 269 522 514 q 959 -38 802 -38 l 1006 -38 q 1156 41 1076 -38 q 1252 603 1252 155 l 1252 1015 q 1093 1165 1252 1128 "},"n":{"ha":1388,"x_min":136,"x_max":1252,"o":"m 1093 1165 q 1252 1015 1252 1128 l 1252 603 q 1156 41 1252 155 q 1006 -38 1076 -38 l 959 -38 q 658 269 802 -38 q 452 579 522 514 l 484 86 q 326 -54 484 -17 l 302 -54 q 136 405 144 -54 l 136 492 q 302 991 136 924 q 405 1023 347 1015 q 761 706 564 1023 q 935 445 871 555 q 931 685 935 531 q 927 1015 927 839 q 1046 1162 966 1157 l 1093 1165 "},"O":{"ha":1482,"x_min":136,"x_max":1347,"o":"m 1307 793 q 839 1165 1112 1165 q 350 982 565 1165 q 136 476 136 800 q 176 286 144 372 q 682 -14 329 -14 l 737 -14 q 1085 89 922 -14 q 1347 547 1347 279 l 1347 579 q 1307 793 1347 684 m 568 747 q 775 838 676 838 q 874 820 823 838 q 1030 571 1030 767 q 745 302 1030 339 l 674 302 q 460 460 460 329 l 460 484 q 514 701 460 656 q 568 747 568 747 "},"o":{"ha":1482,"x_min":136,"x_max":1347,"o":"m 1307 793 q 1347 579 1347 684 l 1347 547 q 1085 89 1347 279 q 737 -14 922 -14 l 682 -14 q 176 286 329 -14 q 136 476 144 372 q 350 982 136 800 q 839 1165 565 1165 q 1307 793 1112 1165 m 568 747 q 514 701 568 747 q 460 484 460 656 l 460 460 q 674 302 460 329 l 745 302 q 1030 571 1030 339 q 874 820 1030 767 q 775 838 823 838 q 568 747 676 838 "},"P":{"ha":1261,"x_min":136,"x_max":1125,"o":"m 610 1236 q 349 1189 492 1236 q 136 753 136 1112 q 160 278 152 422 q 168 96 168 134 q 326 -62 192 -62 q 420 -30 362 -62 q 500 136 500 51 q 492 318 500 172 l 595 318 q 737 334 659 318 q 1125 777 1125 462 q 1109 888 1125 828 q 610 1236 968 1236 m 460 659 l 460 840 q 563 911 465 911 l 642 911 q 806 782 800 880 q 806 769 806 775 q 770 677 806 715 q 587 635 730 635 q 460 659 460 635 "},"p":{"ha":1261,"x_min":136,"x_max":1125,"o":"m 610 1236 q 1109 888 968 1236 q 1125 777 1125 828 q 737 334 1125 462 q 595 318 659 318 l 492 318 q 500 136 500 172 q 420 -30 500 51 q 326 -62 362 -62 q 168 96 192 -62 q 160 278 168 134 q 136 753 152 422 q 349 1189 136 1112 q 610 1236 492 1236 m 460 659 q 587 635 460 635 q 770 677 730 635 q 806 769 806 715 q 806 782 806 775 q 642 911 800 880 l 563 911 q 460 840 465 911 l 460 659 "},"Q":{"ha":1498,"x_min":136,"x_max":1362,"o":"m 1307 785 q 839 1157 1112 1157 q 350 975 565 1157 q 136 469 136 792 q 176 279 144 364 q 682 -22 329 -22 l 737 -22 q 966 18 836 -22 q 1204 -101 1090 -101 l 1212 -101 q 1362 49 1335 -101 l 1362 57 q 1236 223 1362 158 q 1347 540 1347 385 l 1347 571 q 1307 785 1347 675 m 584 734 q 804 821 708 821 q 892 806 849 821 q 1030 564 1030 759 q 745 294 1030 331 l 674 294 q 460 452 460 321 l 460 476 q 522 691 460 648 q 584 734 584 734 "},"q":{"ha":1498,"x_min":136,"x_max":1362,"o":"m 1307 785 q 1347 571 1347 675 l 1347 540 q 1236 223 1347 385 q 1362 57 1362 158 l 1362 49 q 1212 -101 1335 -101 l 1204 -101 q 966 18 1090 -101 q 737 -22 836 -22 l 682 -22 q 176 279 329 -22 q 136 469 144 364 q 350 975 136 792 q 839 1157 565 1157 q 1307 785 1112 1157 m 584 734 q 522 691 584 734 q 460 476 460 648 l 460 452 q 674 294 460 321 l 745 294 q 1030 564 1030 331 q 892 806 1030 759 q 804 821 849 821 q 584 734 708 821 "},"R":{"ha":1262,"x_min":136,"x_max":1126,"o":"m 610 1228 q 349 1181 492 1228 q 136 745 136 1104 q 160 271 152 415 q 168 89 168 126 q 326 -70 192 -70 q 500 152 500 -44 q 492 271 500 192 l 508 262 q 968 -28 833 -28 q 1126 121 1126 -2 q 1109 186 1126 134 q 864 366 1091 239 q 1125 769 1125 529 q 1109 880 1125 821 q 610 1228 968 1228 m 460 650 l 460 832 q 563 903 465 903 l 642 903 q 797 779 797 882 q 795 756 797 768 q 587 627 777 632 q 460 650 460 627 "},"r":{"ha":1262,"x_min":136,"x_max":1126,"o":"m 610 1228 q 1109 880 968 1228 q 1125 769 1125 821 q 864 366 1125 529 q 1109 186 1091 239 q 1126 121 1126 134 q 968 -28 1126 -2 q 508 262 833 -28 l 492 271 q 500 152 500 192 q 326 -70 500 -44 q 168 89 192 -70 q 160 271 168 126 q 136 745 152 415 q 349 1181 136 1104 q 610 1228 492 1228 m 460 650 q 587 627 460 627 q 795 756 777 632 q 797 779 797 768 q 642 903 797 882 l 563 903 q 460 832 465 903 l 460 650 "},"S":{"ha":1348,"x_min":136,"x_max":1212,"o":"m 761 1196 q 405 1101 574 1196 q 136 698 136 914 l 136 674 q 381 389 136 471 q 864 286 864 334 q 571 215 738 215 l 397 215 q 247 57 274 215 q 437 -109 247 -88 l 444 -109 q 713 -94 598 -109 q 1212 286 1212 7 l 1212 334 q 1093 524 1212 438 q 460 706 997 640 q 745 872 539 872 l 785 872 q 927 737 785 778 q 1109 920 1081 737 q 1093 1015 1109 960 q 761 1196 1011 1196 "},"s":{"ha":1348,"x_min":136,"x_max":1212,"o":"m 761 1196 q 1093 1015 1011 1196 q 1109 920 1109 960 q 927 737 1081 737 q 785 872 785 778 l 745 872 q 460 706 539 872 q 1093 524 997 640 q 1212 334 1212 438 l 1212 286 q 713 -94 1212 7 q 444 -109 598 -109 l 437 -109 q 247 57 247 -88 q 397 215 274 215 l 571 215 q 864 286 738 215 q 381 389 864 334 q 136 674 136 471 l 136 698 q 405 1101 136 914 q 761 1196 574 1196 "},"T":{"ha":1316,"x_min":136,"x_max":1180,"o":"m 846 803 l 840 864 l 871 864 q 1022 840 897 864 q 1180 1006 1152 840 q 888 1189 1180 1189 q 437 1157 649 1189 q 136 975 136 1133 q 294 808 155 808 q 515 848 327 808 q 524 801 519 831 q 555 255 542 665 q 547 136 547 220 q 713 -38 571 -38 l 737 -38 q 880 113 880 14 q 846 803 880 433 "},"t":{"ha":1316,"x_min":136,"x_max":1180,"o":"m 846 803 q 880 113 880 433 q 737 -38 880 14 l 713 -38 q 547 136 571 -38 q 555 255 547 220 q 524 801 542 665 q 515 848 519 831 q 294 808 327 808 q 136 975 155 808 q 437 1157 136 1133 q 888 1189 649 1189 q 1180 1006 1180 1189 q 1022 840 1152 840 q 871 864 897 864 l 840 864 l 846 803 "},"U":{"ha":1284,"x_min":136,"x_max":1149,"o":"m 983 1204 q 824 1094 884 1204 q 785 635 800 694 q 532 318 715 318 l 500 318 q 452 484 467 318 l 452 564 q 500 1015 452 779 q 501 1042 501 1029 q 397 1179 501 1162 q 332 1184 361 1184 q 239 1157 268 1184 q 136 540 136 1069 l 136 492 q 191 199 136 341 q 468 -6 307 -6 l 532 -6 q 817 89 664 -6 q 983 -22 885 -22 q 1133 128 1101 -22 l 1133 152 q 1101 516 1109 293 q 1149 1038 1109 679 q 983 1204 1149 1178 "},"u":{"ha":1284,"x_min":136,"x_max":1149,"o":"m 983 1204 q 1149 1038 1149 1178 q 1101 516 1109 679 q 1133 152 1109 293 l 1133 128 q 983 -22 1101 -22 q 817 89 885 -22 q 532 -6 664 -6 l 468 -6 q 191 199 307 -6 q 136 492 136 341 l 136 540 q 239 1157 136 1069 q 332 1184 268 1184 q 397 1179 361 1184 q 501 1042 501 1162 q 500 1015 501 1029 q 452 564 452 779 l 452 484 q 500 318 467 318 l 532 318 q 785 635 715 318 q 824 1094 800 694 q 983 1204 884 1204 "},"V":{"ha":1395,"x_min":136,"x_max":1259,"o":"m 1078 1189 q 1006 1173 1058 1189 q 698 524 928 1127 l 690 524 q 547 864 595 777 q 310 1173 440 1173 l 286 1173 q 136 1015 165 1173 q 208 864 144 973 q 405 389 272 755 q 658 -22 505 -22 l 705 -22 q 832 41 768 -22 l 1141 785 q 1259 1030 1259 977 q 1109 1189 1259 1156 l 1078 1189 "},"v":{"ha":1395,"x_min":136,"x_max":1259,"o":"m 1078 1189 l 1109 1189 q 1259 1030 1259 1156 q 1141 785 1259 977 l 832 41 q 705 -22 768 -22 l 658 -22 q 405 389 505 -22 q 208 864 272 755 q 136 1015 144 973 q 286 1173 165 1173 l 310 1173 q 547 864 440 1173 q 690 524 595 777 l 698 524 q 1006 1173 928 1127 q 1078 1189 1058 1189 "},"W":{"ha":1546,"x_min":136,"x_max":1410,"o":"m 278 1181 q 136 1030 162 1181 q 223 690 136 980 l 302 120 q 484 -6 349 -6 l 492 -6 q 800 310 629 -6 l 808 310 q 1109 9 954 9 l 1156 9 q 1362 286 1322 9 q 1410 999 1389 891 q 1244 1165 1410 1136 l 1220 1165 q 1069 967 1069 1137 l 1069 927 q 1061 532 1069 806 q 1030 571 1053 532 q 824 793 962 793 q 713 753 771 787 q 563 540 689 729 q 508 825 547 696 q 310 1181 459 1181 l 278 1181 "},"w":{"ha":1546,"x_min":136,"x_max":1410,"o":"m 278 1181 l 310 1181 q 508 825 459 1181 q 563 540 547 696 q 713 753 689 729 q 824 793 771 787 q 1030 571 962 793 q 1061 532 1053 532 q 1069 927 1069 806 l 1069 967 q 1220 1165 1069 1137 l 1244 1165 q 1410 999 1410 1136 q 1362 286 1389 891 q 1156 9 1322 9 l 1109 9 q 808 310 954 9 l 800 310 q 492 -6 629 -6 l 484 -6 q 302 120 349 -6 l 223 690 q 136 1030 136 980 q 278 1181 162 1181 "},"X":{"ha":1451,"x_min":136,"x_max":1315,"o":"m 278 1101 q 136 959 166 1101 l 136 927 q 159 856 136 886 q 492 524 487 537 q 223 152 223 235 l 223 120 q 373 -22 223 4 l 381 -22 l 437 -14 q 698 286 481 8 l 800 176 q 1038 -46 935 -46 q 1220 113 1186 -46 q 1212 160 1220 118 q 919 516 1212 197 q 1315 927 1267 786 l 1315 951 q 1156 1094 1263 1094 l 1109 1094 q 713 753 1036 1094 l 610 848 q 310 1101 405 1101 l 278 1101 "},"x":{"ha":1451,"x_min":136,"x_max":1315,"o":"m 278 1101 l 310 1101 q 610 848 405 1101 l 713 753 q 1109 1094 1036 1094 l 1156 1094 q 1315 951 1263 1094 l 1315 927 q 919 516 1267 786 q 1212 160 1212 197 q 1220 113 1220 118 q 1038 -46 1186 -46 q 800 176 935 -46 l 698 286 q 437 -14 481 8 l 381 -22 l 373 -22 q 223 120 223 4 l 223 152 q 492 524 223 235 q 159 856 487 537 q 136 927 136 886 l 136 959 q 278 1101 166 1101 "},"Y":{"ha":1388,"x_min":136,"x_max":1252,"o":"m 1093 1173 q 666 832 973 1173 l 650 840 q 310 1149 421 1149 l 286 1149 q 136 991 163 1149 q 176 888 136 945 l 492 547 l 492 437 q 476 120 492 265 q 642 -46 476 -14 q 767 0 709 -42 q 825 416 825 43 q 824 547 825 477 q 1069 793 1067 781 q 1252 1015 1252 910 q 1093 1173 1252 1154 "},"y":{"ha":1388,"x_min":136,"x_max":1252,"o":"m 1093 1173 q 1252 1015 1252 1154 q 1069 793 1252 910 q 824 547 1067 781 q 825 416 825 477 q 767 0 825 43 q 642 -46 709 -42 q 476 120 476 -14 q 492 437 492 265 l 492 547 l 176 888 q 136 991 136 945 q 286 1149 163 1149 l 310 1149 q 650 840 421 1149 l 666 832 q 1093 1173 973 1173 "},"Z":{"ha":1466,"x_min":136,"x_max":1331,"o":"m 1006 1189 q 437 1157 789 1189 q 176 999 176 1157 l 176 983 q 310 832 206 832 q 785 864 730 864 l 793 864 q 136 168 136 338 q 310 -14 169 -14 q 856 57 730 57 l 919 57 q 1156 18 996 57 q 1331 191 1294 18 q 1271 320 1331 277 q 951 374 1211 363 q 682 357 797 374 q 966 603 682 368 q 1291 983 1291 846 l 1283 1038 q 1006 1189 1235 1189 "},"z":{"ha":1466,"x_min":136,"x_max":1331,"o":"m 1006 1189 q 1283 1038 1235 1189 l 1291 983 q 966 603 1291 846 q 682 357 682 368 q 951 374 797 374 q 1271 320 1211 363 q 1331 191 1331 277 q 1156 18 1294 18 q 919 57 996 57 l 856 57 q 310 -14 730 57 q 136 168 169 -14 q 793 864 136 338 l 785 864 q 310 832 730 864 q 176 983 206 832 l 176 999 q 437 1157 176 1157 q 1006 1189 789 1189 "},"[":{"ha":1118,"x_min":136,"x_max":983,"o":"m 777 1260 q 352 1202 433 1249 q 239 1015 271 1155 q 136 223 183 901 q 215 9 136 66 q 777 -70 294 -48 q 919 65 919 -29 l 919 120 q 838 235 899 199 q 468 271 776 271 l 460 271 q 539 920 484 705 q 745 935 608 920 q 808 927 789 927 q 894 944 835 927 q 983 1070 954 961 l 983 1109 q 777 1260 983 1231 "},"\\":{"ha":1031,"x_min":136,"x_max":895,"o":"m 302 1213 q 136 1038 162 1213 q 215 758 136 942 q 532 152 294 574 q 729 -54 611 -54 l 737 -54 q 895 104 864 -54 q 880 191 895 161 q 492 951 657 552 q 302 1213 445 1213 "},"]":{"ha":1055,"x_min":136,"x_max":919,"o":"m 318 1239 q 176 1109 191 1235 l 176 1070 q 357 920 176 956 q 595 927 425 920 q 539 302 595 802 l 278 318 q 136 160 174 318 q 235 13 159 49 q 610 -22 311 -22 q 801 51 741 -22 q 919 975 860 125 q 587 1252 919 1252 q 381 1241 445 1242 q 318 1239 318 1239 "},"^":{"ha":1047,"x_min":136,"x_max":911,"o":"m 468 1133 q 366 1086 437 1133 q 136 674 136 764 q 271 516 165 516 l 318 516 q 492 713 412 516 l 500 713 q 745 516 637 516 l 761 516 q 911 666 884 516 l 911 706 q 753 911 911 752 q 508 1133 631 1133 l 468 1133 "},"_":{"ha":1498,"x_min":136,"x_max":1362,"o":"m 1196 334 q 326 310 1077 334 q 136 144 136 290 q 262 -14 136 33 q 1038 9 770 9 q 1220 1 1096 9 q 1362 144 1362 52 l 1362 191 q 1196 334 1362 297 "},"{":{"ha":1173,"x_min":136,"x_max":1038,"o":"m 737 1157 q 579 999 610 1157 q 690 848 579 903 q 871 730 799 730 l 888 730 q 1038 880 1014 730 l 1038 927 q 761 1157 915 1157 l 737 1157 m 429 761 q 136 579 136 715 l 136 547 q 286 405 136 431 l 294 405 l 452 445 q 642 421 539 437 q 800 579 769 421 q 753 690 800 632 q 492 761 709 761 l 429 761 m 832 405 q 785 397 826 405 q 579 168 579 288 l 579 152 q 737 1 579 31 q 793 18 753 1 q 990 247 990 131 q 832 405 990 374 "},"|":{"ha":620,"x_min":136,"x_max":484,"o":"m 318 1244 q 195 1188 255 1244 q 136 669 136 1132 l 136 627 q 144 231 136 428 q 318 -38 144 -38 q 476 104 476 -2 q 460 579 460 467 l 460 848 q 484 1094 460 966 l 484 1109 q 334 1244 442 1244 l 318 1244 "},"}":{"ha":1173,"x_min":136,"x_max":1038,"o":"m 532 1165 q 302 1030 428 1165 q 168 817 168 892 q 326 659 168 690 l 334 659 q 555 840 419 659 q 682 999 682 913 l 682 1015 q 532 1165 682 1138 m 705 690 q 357 508 357 690 q 515 350 357 381 q 698 381 644 381 l 713 381 q 871 350 749 381 l 911 350 q 1038 492 1012 350 l 1038 508 l 1030 564 q 713 690 951 690 l 705 690 m 278 366 q 136 223 136 340 l 136 176 q 342 -22 237 -22 l 381 -22 q 508 104 472 -22 l 508 160 q 302 366 425 366 l 278 366 "},"~":{"ha":1403,"x_min":136,"x_max":1267,"o":"m 1101 880 q 975 817 1039 880 q 871 659 920 669 l 856 659 l 808 698 q 515 848 675 848 l 468 848 q 274 788 374 848 q 136 555 175 728 l 136 547 q 271 389 162 389 l 325 389 q 413 437 384 389 q 500 532 453 521 q 555 492 507 532 q 864 334 694 334 q 1006 366 950 334 q 1267 722 1267 515 q 1117 880 1243 880 l 1101 880 "},"¢":{"ha":1086,"x_min":136,"x_max":951,"o":"m 610 1165 q 444 959 467 1157 q 136 587 136 827 q 207 381 136 479 q 437 247 276 288 q 587 81 471 81 l 627 81 q 761 223 724 81 q 935 397 935 277 q 777 555 935 524 q 642 532 674 532 q 460 571 553 532 l 460 587 q 658 682 460 654 q 785 618 726 618 l 800 618 q 951 769 919 618 q 777 983 951 940 q 610 1165 751 1165 "},"£":{"ha":1284,"x_min":136,"x_max":1149,"o":"m 840 1189 q 618 1125 717 1189 q 389 753 467 1023 l 326 753 q 136 595 136 741 l 136 587 q 271 437 164 437 l 271 429 q 159 176 159 211 l 159 128 q 349 -30 159 1 q 808 9 381 -30 q 1149 176 1149 9 l 1149 208 q 1022 342 1149 293 q 563 310 899 342 q 610 437 610 420 l 713 437 q 864 579 864 463 l 864 618 q 729 753 864 710 l 722 753 q 785 856 722 779 q 919 785 854 785 l 927 785 q 1093 983 1065 785 q 840 1189 1093 1152 "},"‘":{"ha":651,"x_min":136,"x_max":515,"o":"m 334 748 q 492 899 492 776 l 492 922 q 468 1009 492 949 q 515 1144 515 1118 l 515 1168 q 366 1318 515 1291 l 342 1318 q 278 1302 307 1318 q 136 1017 136 1191 l 136 994 q 334 748 172 748 "},"’":{"ha":651,"x_min":136,"x_max":515,"o":"m 318 1318 q 159 1168 159 1291 l 159 1144 q 183 1057 159 1118 q 136 922 136 948 l 136 899 q 286 748 136 775 l 310 748 q 373 764 345 748 q 515 1049 515 876 l 515 1073 q 318 1318 479 1318 "},"“":{"ha":1183,"x_min":136,"x_max":1047,"o":"m 334 748 q 492 899 492 776 l 492 922 q 468 1009 492 949 q 515 1144 515 1118 l 515 1168 q 366 1318 515 1291 l 342 1318 q 278 1302 307 1318 q 136 1017 136 1191 l 136 994 q 334 748 172 748 m 865 748 q 1023 899 1023 776 l 1023 922 q 1000 1009 1023 949 q 1047 1144 1047 1118 l 1047 1168 q 897 1318 1047 1291 l 873 1318 q 810 1302 839 1318 q 667 1017 667 1191 l 667 994 q 865 748 703 748 "},"”":{"ha":1183,"x_min":136,"x_max":1047,"o":"m 318 1318 q 159 1168 159 1291 l 159 1144 q 183 1057 159 1118 q 136 922 136 948 l 136 899 q 286 748 136 775 l 310 748 q 373 764 345 748 q 515 1049 515 876 l 515 1073 q 318 1318 479 1318 m 850 1318 q 691 1168 691 1291 l 691 1144 q 715 1057 691 1118 q 667 922 667 948 l 667 899 q 818 748 667 775 l 842 748 q 905 764 876 748 q 1047 1049 1047 876 l 1047 1073 q 850 1318 1011 1318 "},"…":{"ha":1678,"x_min":136,"x_max":1543,"o":"m 407 443 q 313 471 359 471 q 155 387 232 471 q 136 307 147 372 q 136 294 136 300 q 235 130 136 188 l 256 119 q 326 98 291 98 q 477 201 403 98 q 501 283 501 242 q 407 443 501 364 m 928 443 q 833 471 880 471 q 676 387 753 471 q 657 307 668 372 q 656 294 656 300 q 756 130 656 188 l 777 119 q 846 98 812 98 q 998 201 924 98 q 1022 283 1022 242 q 928 443 1022 364 m 1449 443 q 1354 471 1400 471 q 1197 387 1273 471 q 1178 307 1189 372 q 1177 294 1177 300 q 1277 130 1177 188 l 1297 119 q 1367 98 1333 98 q 1519 201 1444 98 q 1543 283 1543 242 q 1449 443 1543 364 "},"€":{"ha":1577,"x_min":136,"x_max":1442,"o":"m 1093 1213 q 381 896 612 1213 q 302 761 311 761 q 136 611 136 742 l 136 595 q 239 452 136 504 l 294 452 q 823 25 370 25 l 840 25 q 990 41 930 25 q 1442 286 1442 119 l 1442 318 q 1299 460 1442 430 l 1244 460 q 840 342 1020 342 q 595 469 632 342 q 919 452 898 452 q 1038 587 1038 508 l 1038 650 q 856 777 1002 777 l 705 777 q 1054 896 814 896 l 1101 888 q 1220 848 1193 848 q 1378 999 1378 882 l 1371 1046 q 1093 1213 1331 1213 "},"™":{"ha":1569,"x_min":136,"x_max":1434,"o":"m 1117 1189 q 943 1141 1050 1189 q 787 951 787 1029 l 787 949 q 460 1181 692 1181 q 136 808 184 1181 q 357 262 136 553 q 777 -14 646 -14 q 1022 128 886 -14 q 1434 856 1434 597 l 1434 935 q 1173 1189 1352 1189 l 1117 1189 "},"`":{"ha":761,"x_min":136,"x_max":625,"o":"m 178 1575 q 136 1455 136 1508 q 182 1356 136 1398 l 199 1340 q 279 1299 219 1322 q 347 1173 328 1190 l 365 1157 q 458 1118 408 1118 q 577 1166 513 1118 l 593 1184 q 624 1242 616 1209 q 625 1277 625 1260 q 510 1539 625 1433 l 492 1555 q 299 1630 382 1630 q 178 1575 228 1630 "},"¡":{"ha":722,"x_min":136,"x_max":587,"o":"m 302 -77 q 436 2 378 -77 q 578 643 566 329 q 420 825 555 825 l 404 825 q 246 667 246 795 l 246 604 q 136 81 246 404 q 286 -77 159 -77 l 302 -77 m 420 904 q 587 1078 557 904 q 436 1252 587 1228 l 389 1252 q 231 1086 260 1252 l 231 1031 q 404 904 264 904 l 420 904 "},"¤":{"ha":1037,"x_min":136,"x_max":901,"o":"m 876 709 q 580 944 753 944 q 271 829 407 944 q 136 509 136 713 q 161 389 141 443 q 481 199 258 199 l 516 199 q 736 264 633 199 q 901 553 901 385 l 901 574 q 876 709 901 640 m 409 680 q 540 737 477 737 q 602 726 570 737 q 701 569 701 692 q 521 399 701 422 l 476 399 q 341 498 341 416 l 341 514 q 375 651 341 623 q 409 680 409 680 "},"¥":{"ha":1388,"x_min":136,"x_max":1252,"o":"m 492 505 q 302 479 400 494 q 136 321 136 458 q 294 163 136 189 l 318 163 q 482 189 408 178 q 476 120 479 153 q 642 -46 476 -14 q 772 3 709 -42 q 820 209 808 30 q 1014 194 925 205 q 1054 202 1040 199 q 1173 353 1173 250 l 1173 360 q 935 526 1173 526 l 825 526 q 824 547 824 536 q 1069 793 1067 781 q 1252 1015 1252 910 q 1093 1173 1252 1154 q 666 832 973 1173 l 650 840 q 310 1149 421 1149 l 286 1149 q 136 991 163 1149 q 176 888 136 945 l 492 547 l 492 505 "},"¦":{"ha":619,"x_min":136,"x_max":484,"o":"m 475 104 q 460 500 461 439 q 312 577 460 556 q 136 471 136 550 l 136 470 q 143 231 136 390 q 317 -38 143 -38 q 475 104 475 -2 m 136 1021 q 136 908 136 909 q 298 688 136 688 q 460 848 460 688 q 484 1094 460 966 l 484 1109 q 333 1244 441 1244 l 317 1244 q 193 1187 254 1244 q 136 1077 136 1133 q 136 1021 136 1021 "},"§":{"ha":1352,"x_min":136,"x_max":1217,"o":"m 536 609 q 864 525 864 564 q 730 472 802 490 q 465 513 614 494 q 536 609 493 571 m 214 722 q 140 505 140 618 l 140 481 q 250 264 140 346 q 437 130 269 148 l 444 130 q 713 145 598 130 q 724 147 719 146 q 869 93 869 119 q 576 22 743 22 l 401 22 q 252 -136 279 22 q 441 -302 252 -281 l 449 -302 q 718 -287 603 -302 q 1217 93 1217 -186 l 1217 140 q 1118 315 1217 236 q 1212 525 1212 404 l 1212 572 q 1113 747 1212 668 q 1098 821 1109 781 q 934 976 1048 933 q 1109 1158 1082 980 q 1093 1253 1109 1198 q 761 1435 1011 1435 q 405 1340 574 1435 q 136 937 136 1153 l 136 913 q 214 722 136 798 m 884 991 q 766 1003 830 1003 q 478 943 616 1003 q 460 945 469 943 q 745 1111 539 1111 l 785 1111 q 884 991 785 1032 "},"¨":{"ha":1066,"x_min":136,"x_max":930,"o":"m 326 1489 q 136 1315 174 1489 q 159 1236 136 1299 q 334 1133 212 1133 l 357 1133 q 508 1315 490 1133 q 326 1489 508 1458 m 748 1494 q 558 1320 597 1494 q 582 1240 558 1303 q 756 1138 634 1138 l 780 1138 q 930 1320 912 1138 q 748 1494 930 1463 "},"©":{"ha":1299,"x_min":136,"x_max":1163,"o":"m 1129 753 q 732 1069 964 1069 q 318 914 500 1069 q 136 484 136 759 q 170 323 142 396 q 599 68 300 68 l 646 68 q 941 156 803 68 q 1163 545 1163 317 l 1163 572 q 1129 753 1163 661 m 448 774 q 681 876 570 876 q 793 857 735 876 q 968 576 968 797 q 648 274 968 315 l 568 274 q 327 452 327 304 l 327 479 q 388 723 327 672 q 448 774 448 774 m 680 812 q 602 795 648 812 q 454 554 454 722 q 471 464 454 511 q 660 336 521 336 q 731 342 707 336 q 774 365 756 348 q 793 400 793 381 q 784 437 793 416 q 737 471 768 471 q 715 468 727 471 q 642 455 675 455 q 628 456 635 455 q 570 554 570 483 q 573 577 570 557 q 686 694 596 694 l 689 694 q 741 656 706 656 q 800 717 789 656 q 695 812 800 799 l 680 812 "},"«":{"ha":1658,"x_min":136,"x_max":1522,"o":"m 674 959 q 634 951 648 959 q 397 817 534 886 q 136 603 136 742 l 136 587 q 381 342 136 460 q 634 208 587 208 l 666 208 q 808 350 770 208 q 627 571 808 488 l 627 579 q 848 801 848 669 l 848 808 q 705 959 822 959 l 674 959 m 1349 937 q 1309 928 1322 937 q 1072 794 1209 863 q 810 581 810 720 l 810 565 q 1056 319 810 438 q 1309 185 1262 185 l 1341 185 q 1483 328 1444 185 q 1301 549 1483 465 l 1301 557 q 1522 779 1522 646 l 1522 786 q 1380 937 1497 937 l 1349 937 "},"­":{"ha":1308,"x_min":136,"x_max":1173,"o":"m 840 785 q 302 737 606 785 q 136 579 136 716 q 294 421 136 448 l 318 421 q 729 469 597 469 q 1014 452 888 469 q 1054 460 1040 458 q 1173 611 1173 509 l 1173 618 q 935 785 1173 785 l 840 785 "},"®":{"ha":1299,"x_min":136,"x_max":1163,"o":"m 1129 753 q 732 1069 964 1069 q 318 914 500 1069 q 136 484 136 759 q 170 323 142 396 q 599 68 300 68 l 646 68 q 941 156 803 68 q 1163 545 1163 317 l 1163 572 q 1129 753 1163 661 m 448 774 q 681 876 570 876 q 793 857 735 876 q 968 576 968 797 q 648 274 968 315 l 568 274 q 327 452 327 304 l 327 479 q 388 723 327 672 q 448 774 448 774 m 649 821 q 554 804 606 821 q 476 645 476 776 q 485 471 482 524 q 488 405 488 418 q 545 347 496 347 q 609 428 609 357 q 606 471 609 443 l 612 469 q 780 362 730 362 q 838 417 838 372 q 831 440 838 421 q 742 506 825 460 q 837 653 837 566 q 831 694 837 672 q 649 821 780 821 m 595 610 l 595 676 q 632 703 596 703 l 661 703 q 718 656 718 694 q 717 648 718 652 q 641 602 710 604 q 595 610 595 602 "},"¯":{"ha":1308,"x_min":136,"x_max":1173,"o":"m 840 1666 q 302 1618 606 1666 q 136 1460 136 1597 q 294 1302 136 1329 l 318 1302 q 729 1350 597 1350 q 1014 1333 888 1350 q 1054 1341 1040 1339 q 1173 1492 1173 1390 l 1173 1499 q 935 1666 1173 1666 l 840 1666 "},"°":{"ha":644,"x_min":136,"x_max":508,"o":"m 326 1645 q 136 1471 174 1645 q 159 1392 136 1455 q 334 1289 212 1289 l 357 1289 q 508 1471 490 1289 q 326 1645 508 1614 m 326 1563 q 425 1470 425 1546 q 344 1372 414 1372 l 331 1372 q 237 1427 265 1372 q 224 1470 224 1461 q 326 1563 245 1563 "},"±":{"ha":1451,"x_min":136,"x_max":1315,"o":"m 698 1362 q 539 1204 571 1362 l 555 1006 l 555 998 q 413 990 457 998 q 136 824 136 990 l 136 817 q 278 658 174 658 q 571 690 347 658 q 555 429 555 453 q 690 286 593 286 l 761 286 q 888 515 888 321 l 888 698 q 1156 682 1022 698 l 1196 690 q 1315 848 1315 741 q 1307 895 1307 890 q 1093 1014 1259 1014 l 871 1014 l 871 1125 q 713 1362 871 1362 l 698 1362 m 897 241 q 359 193 663 241 q 193 35 193 172 q 351 -123 193 -96 l 375 -123 q 786 -75 654 -75 q 1071 -92 945 -75 q 1111 -83 1097 -86 q 1230 67 1230 -35 l 1230 75 q 992 241 1230 241 l 897 241 "},"´":{"ha":761,"x_min":136,"x_max":625,"o":"m 178 1173 q 299 1118 228 1118 q 492 1192 382 1118 l 510 1208 q 625 1470 625 1314 q 624 1506 625 1488 q 593 1563 616 1538 l 577 1581 q 458 1630 513 1630 q 365 1590 408 1630 l 347 1574 q 279 1449 328 1557 q 199 1407 219 1425 l 182 1391 q 136 1293 136 1349 q 178 1173 136 1239 "},"µ":{"ha":1318,"x_min":136,"x_max":1183,"o":"m 273 1157 q 136 464 136 790 q 155 228 136 343 q 321 -319 224 -199 q 385 -335 350 -335 l 408 -335 q 559 -184 559 -309 l 559 -161 q 511 -26 559 -135 q 519 -6 515 -16 l 566 -6 q 850 89 698 -6 q 1017 -22 919 -22 q 1166 128 1135 -22 l 1166 152 q 1135 516 1143 293 q 1183 1038 1143 679 q 1017 1204 1183 1178 q 858 1094 918 1204 q 819 635 834 694 q 566 318 749 318 l 534 318 q 486 484 500 318 l 486 564 q 534 1015 486 779 q 535 1042 535 1029 q 431 1179 535 1162 q 366 1184 395 1184 q 273 1157 302 1184 "},"¶":{"ha":1392,"x_min":136,"x_max":1257,"o":"m 1166 879 q 1213 914 1192 891 q 1257 1031 1257 962 q 1218 1150 1257 1099 q 1042 1201 1179 1201 q 969 1198 1008 1201 q 827 1056 850 1198 l 827 1024 l 858 795 q 725 801 758 801 l 715 801 q 636 783 691 799 l 628 783 l 628 910 q 543 1195 628 1195 q 456 1196 458 1196 q 226 1126 291 1196 q 148 969 159 1056 q 136 849 136 882 q 174 697 136 758 q 290 623 221 623 q 307 625 298 623 q 294 -195 301 429 q 452 -345 294 -315 q 618 -163 597 -345 q 620 467 618 -68 q 749 488 699 488 l 757 488 q 842 470 808 486 q 825 -176 825 -52 q 975 -310 825 -278 l 991 -310 q 1101 -262 1046 -310 q 1168 669 1168 -262 q 1167 834 1168 748 q 1166 879 1167 857 "},"·":{"ha":644,"x_min":136,"x_max":508,"o":"m 326 815 q 136 641 174 815 q 159 562 136 625 q 334 459 212 459 l 357 459 q 508 641 490 459 q 326 815 508 784 "},"¸":{"ha":651,"x_min":136,"x_max":515,"o":"m 414 123 q 296 40 296 119 q 296 28 296 34 q 326 -141 306 -64 q 212 -265 288 -231 q 136 -361 136 -299 q 221 -444 136 -423 q 286 -452 255 -452 l 290 -452 q 373 -434 335 -452 q 515 -149 515 -323 l 515 -125 q 414 123 479 120 "},"»":{"ha":1658,"x_min":136,"x_max":1522,"o":"m 984 959 l 953 959 q 810 808 836 959 l 810 801 q 1031 579 810 669 l 1031 571 q 850 350 850 488 q 992 208 888 208 l 1024 208 q 1277 342 1071 208 q 1522 587 1522 460 l 1522 603 q 1261 817 1522 742 q 1024 951 1124 886 q 984 959 1010 959 m 309 937 l 278 937 q 136 786 161 937 l 136 779 q 357 557 136 646 l 357 549 q 175 328 175 465 q 317 185 214 185 l 349 185 q 602 319 396 185 q 848 565 848 438 l 848 581 q 587 794 848 720 q 349 928 449 863 q 309 937 336 937 "},"¼":{"ha":1371,"x_min":136,"x_max":1236,"o":"m 1078 1086 q 753 872 1002 1086 q 251 365 366 519 q 136 128 136 211 l 136 120 q 278 -30 162 -30 l 310 -30 q 587 262 410 -30 q 1030 698 784 521 q 1236 911 1236 810 l 1236 935 q 1078 1086 1236 1059 m 398 1090 q 345 1070 364 1090 q 294 1044 325 1051 q 263 994 263 1036 q 313 941 271 941 l 324 941 l 337 944 q 311 724 321 784 q 359 671 318 671 l 369 671 q 420 719 403 671 q 456 1029 435 899 q 398 1090 444 1090 m 968 490 l 956 490 q 840 387 934 490 q 747 273 747 317 q 772 221 747 248 q 961 201 802 201 l 963 201 q 958 144 963 190 q 1010 85 966 85 l 1015 85 q 1060 107 1051 92 q 1069 186 1069 123 l 1069 198 l 1100 198 q 1144 248 1134 198 l 1144 250 q 1084 301 1144 296 l 1077 301 l 1077 314 q 1033 358 1077 345 l 1020 358 q 971 304 987 358 l 901 304 q 932 335 901 306 q 1015 435 1015 407 l 1015 444 q 968 490 1015 481 "},"½":{"ha":1371,"x_min":136,"x_max":1236,"o":"m 1078 1086 q 753 872 1002 1086 q 251 365 366 519 q 136 128 136 211 l 136 120 q 278 -30 162 -30 l 310 -30 q 587 262 410 -30 q 1030 698 784 521 q 1236 911 1236 810 l 1236 935 q 1078 1086 1236 1059 m 398 1090 q 345 1070 364 1090 q 294 1044 325 1051 q 263 994 263 1036 q 313 941 271 941 l 324 941 l 337 944 q 311 724 321 784 q 359 671 318 671 l 369 671 q 420 719 403 671 q 456 1029 435 899 q 398 1090 444 1090 m 949 484 q 857 466 901 484 q 785 394 785 431 q 836 338 791 338 l 841 338 q 867 347 854 338 q 933 376 897 376 l 960 376 q 981 370 971 376 l 983 370 q 912 277 983 334 q 772 140 772 186 q 838 79 772 90 q 1031 95 977 95 q 1103 92 1054 95 q 1156 140 1156 106 l 1156 159 q 1111 203 1156 190 q 981 198 1075 201 q 1089 359 1089 285 l 1089 376 q 1079 420 1089 405 q 949 484 1042 484 "},"¾":{"ha":1371,"x_min":136,"x_max":1236,"o":"m 1078 1086 q 753 872 1002 1086 q 251 365 366 519 q 136 128 136 211 l 136 120 q 278 -30 162 -30 l 310 -30 q 587 262 410 -30 q 1030 698 784 521 q 1236 911 1236 810 l 1236 935 q 1078 1086 1236 1059 m 968 490 l 956 490 q 840 387 934 490 q 747 273 747 317 q 772 221 747 248 q 961 201 802 201 l 963 201 q 958 144 963 190 q 1010 85 966 85 l 1015 85 q 1060 107 1051 92 q 1069 186 1069 123 l 1069 198 l 1100 198 q 1144 248 1134 198 l 1144 250 q 1084 301 1144 296 l 1077 301 l 1077 314 q 1033 358 1077 345 l 1020 358 q 971 304 987 358 l 901 304 q 932 335 901 306 q 1015 435 1015 407 l 1015 444 q 968 490 1015 481 m 399 1057 q 268 1047 344 1057 q 205 1002 205 1043 l 205 995 q 258 949 205 957 q 351 959 321 959 l 354 959 l 354 956 q 296 884 296 918 q 328 837 296 856 q 399 827 387 834 q 373 791 399 798 q 334 784 347 784 q 306 791 317 784 q 263 823 288 823 l 256 823 q 208 768 216 823 l 208 765 q 332 691 226 691 q 404 705 368 691 q 497 823 497 747 l 497 827 q 449 909 497 880 l 449 911 q 516 997 516 968 l 516 1006 q 463 1057 516 1046 l 399 1057 "},"¿":{"ha":1324,"x_min":136,"x_max":1188,"o":"m 642 -77 q 800 -69 693 -77 q 1188 168 1188 -20 q 1029 327 1188 300 l 1006 327 q 673 239 849 239 l 650 239 q 507 256 587 239 l 507 263 q 840 612 840 373 l 840 627 q 697 793 806 793 l 650 793 q 500 604 536 793 q 136 287 136 490 l 136 239 q 151 168 136 220 q 642 -77 247 -64 m 658 849 q 824 1007 824 884 l 824 1063 q 658 1189 772 1189 q 460 1023 460 1166 l 460 1015 q 626 849 460 880 l 658 849 "},"À":{"ha":1482,"x_min":136,"x_max":1347,"o":"m 753 1190 q 634 1135 695 1190 q 397 668 593 1099 q 136 66 136 106 l 136 27 q 271 -108 136 -68 l 310 -108 q 508 138 414 -108 q 587 134 547 134 q 966 209 778 134 q 1188 -37 1046 -37 q 1347 106 1347 5 l 1347 170 q 1006 882 1196 448 q 777 1190 911 1190 l 753 1190 m 745 668 q 845 494 761 668 q 713 469 775 469 q 666 473 689 469 l 659 473 l 745 668 m 509 1790 q 467 1670 467 1723 q 513 1571 467 1613 l 530 1555 q 610 1514 550 1537 q 678 1388 659 1405 l 696 1372 q 789 1333 739 1333 q 908 1381 844 1333 l 924 1399 q 955 1457 947 1424 q 956 1492 956 1475 q 841 1754 956 1648 l 823 1770 q 630 1845 713 1845 q 509 1790 559 1845 "},"Á":{"ha":1482,"x_min":136,"x_max":1347,"o":"m 753 1190 q 634 1135 695 1190 q 397 668 593 1099 q 136 66 136 106 l 136 27 q 271 -108 136 -68 l 310 -108 q 508 138 414 -108 q 587 134 547 134 q 966 209 778 134 q 1188 -37 1046 -37 q 1347 106 1347 5 l 1347 170 q 1006 882 1196 448 q 777 1190 911 1190 l 753 1190 m 745 668 q 845 494 761 668 q 713 469 775 469 q 666 473 689 469 l 659 473 l 745 668 m 1077 1786 q 956 1841 1027 1841 q 762 1766 873 1841 l 745 1750 q 629 1488 629 1644 q 631 1453 629 1471 q 661 1395 638 1420 l 677 1377 q 797 1329 741 1329 q 890 1368 847 1329 l 907 1384 q 975 1510 926 1401 q 1055 1551 1036 1533 l 1073 1567 q 1119 1666 1119 1609 q 1077 1786 1119 1719 "},"Â":{"ha":1482,"x_min":136,"x_max":1347,"o":"m 753 1190 q 634 1135 695 1190 q 397 668 593 1099 q 136 66 136 106 l 136 27 q 271 -108 136 -68 l 310 -108 q 508 138 414 -108 q 587 134 547 134 q 966 209 778 134 q 1188 -37 1046 -37 q 1347 106 1347 5 l 1347 170 q 1006 882 1196 448 q 777 1190 911 1190 l 753 1190 m 745 668 q 845 494 761 668 q 713 469 775 469 q 666 473 689 469 l 659 473 l 745 668 m 705 1945 q 602 1898 673 1945 q 372 1486 372 1575 q 507 1328 401 1328 l 555 1328 q 728 1525 648 1328 l 736 1525 q 982 1328 873 1328 l 998 1328 q 1148 1478 1121 1328 l 1148 1518 q 989 1723 1148 1564 q 745 1945 867 1945 l 705 1945 "},"Ã":{"ha":1482,"x_min":136,"x_max":1347,"o":"m 753 1190 q 634 1135 695 1190 q 397 668 593 1099 q 136 66 136 106 l 136 27 q 271 -108 136 -68 l 310 -108 q 508 138 414 -108 q 587 134 547 134 q 966 209 778 134 q 1188 -37 1046 -37 q 1347 106 1347 5 l 1347 170 q 1006 882 1196 448 q 777 1190 911 1190 l 753 1190 m 745 668 q 845 494 761 668 q 713 469 775 469 q 666 473 689 469 l 659 473 l 745 668 m 1115 1864 q 988 1801 1053 1864 q 885 1643 934 1653 l 869 1643 l 822 1682 q 529 1832 689 1832 l 481 1832 q 288 1772 387 1832 q 149 1539 189 1712 l 149 1531 q 284 1373 176 1373 l 338 1373 q 427 1421 397 1373 q 513 1516 467 1505 q 569 1476 521 1516 q 878 1318 708 1318 q 1020 1350 964 1318 q 1281 1706 1281 1499 q 1131 1864 1257 1864 l 1115 1864 "},"Ä":{"ha":1482,"x_min":136,"x_max":1347,"o":"m 753 1190 q 634 1135 695 1190 q 397 668 593 1099 q 136 66 136 106 l 136 27 q 271 -108 136 -68 l 310 -108 q 508 138 414 -108 q 587 134 547 134 q 966 209 778 134 q 1188 -37 1046 -37 q 1347 106 1347 5 l 1347 170 q 1006 882 1196 448 q 777 1190 911 1190 l 753 1190 m 745 668 q 845 494 761 668 q 713 469 775 469 q 666 473 689 469 l 659 473 l 745 668 m 532 1681 q 342 1507 380 1681 q 366 1428 342 1491 q 540 1325 418 1325 l 564 1325 q 714 1507 696 1325 q 532 1681 714 1650 m 954 1686 q 764 1512 803 1686 q 788 1432 764 1495 q 962 1330 840 1330 l 986 1330 q 1137 1512 1118 1330 q 954 1686 1137 1655 "},"Å":{"ha":1482,"x_min":136,"x_max":1347,"o":"m 753 1190 q 634 1135 695 1190 q 397 668 593 1099 q 136 66 136 106 l 136 27 q 271 -108 136 -68 l 310 -108 q 508 138 414 -108 q 587 134 547 134 q 966 209 778 134 q 1188 -37 1046 -37 q 1347 106 1347 5 l 1347 170 q 1006 882 1196 448 q 777 1190 911 1190 l 753 1190 m 745 668 q 845 494 761 668 q 713 469 775 469 q 666 473 689 469 l 659 473 l 745 668 m 739 1645 q 549 1471 588 1645 q 573 1392 549 1455 q 747 1289 625 1289 l 771 1289 q 922 1471 903 1289 q 739 1645 922 1614 m 740 1563 q 838 1470 838 1546 q 758 1372 828 1372 l 745 1372 q 651 1427 679 1372 q 638 1470 638 1461 q 740 1563 659 1563 "},"Æ":{"ha":1965,"x_min":136,"x_max":1830,"o":"m 745 668 q 845 494 761 668 q 713 469 775 469 q 666 473 689 469 l 659 473 l 745 668 m 890 182 q 1141 -94 947 -94 q 1608 -30 1404 -54 q 1813 128 1790 -30 q 1671 294 1780 294 q 1303 252 1611 294 q 1221 416 1263 330 q 1434 429 1366 429 q 1664 587 1664 429 q 1505 753 1637 753 q 1213 737 1428 753 l 1204 737 l 1228 825 q 1608 888 1228 888 l 1695 888 q 1830 1023 1788 888 l 1830 1070 q 1695 1204 1830 1163 l 1584 1204 q 1118 1157 1251 1204 q 962 1004 1022 1115 q 777 1190 882 1190 l 753 1190 q 634 1135 695 1190 q 397 668 593 1099 q 136 66 136 106 l 136 27 q 271 -108 136 -68 l 310 -108 q 508 138 414 -108 q 587 134 547 134 q 890 182 739 134 "},"Ç":{"ha":1213,"x_min":136,"x_max":1078,"o":"m 623 -74 q 650 -218 633 -151 q 536 -342 612 -308 q 460 -438 460 -376 q 545 -522 460 -500 q 610 -530 579 -530 l 614 -530 q 697 -511 659 -530 q 840 -227 840 -400 l 840 -203 q 814 -73 828 -126 q 892 -62 860 -69 q 1009 -1 959 -46 q 1059 95 1059 43 q 1034 196 1059 138 q 908 291 994 291 q 847 281 880 291 q 644 245 735 245 q 610 247 627 245 q 452 516 452 322 q 460 579 452 523 q 769 896 523 896 l 777 896 q 919 793 822 793 q 1078 959 1048 793 q 793 1220 1078 1182 l 753 1220 q 539 1173 667 1220 q 136 516 136 971 q 183 271 136 397 q 623 -74 304 -42 "},"È":{"ha":1237,"x_min":136,"x_max":1101,"o":"m 856 1204 q 389 1157 522 1204 q 136 445 136 1046 q 159 191 136 318 q 413 -94 215 -94 q 880 -30 675 -54 q 1085 128 1061 -30 q 943 294 1052 294 q 476 239 873 294 q 452 413 452 408 q 705 429 629 429 q 935 587 935 429 q 777 753 909 753 q 484 737 700 753 l 476 737 l 500 825 q 880 888 500 888 l 966 888 q 1101 1023 1060 888 l 1101 1070 q 966 1204 1101 1163 l 856 1204 m 363 1790 q 321 1670 321 1723 q 368 1571 321 1613 l 385 1555 q 465 1514 405 1537 q 533 1388 514 1405 l 551 1372 q 644 1333 593 1333 q 763 1381 699 1333 l 779 1399 q 810 1457 802 1424 q 811 1492 811 1475 q 696 1754 811 1648 l 678 1770 q 485 1845 568 1845 q 363 1790 414 1845 "},"É":{"ha":1237,"x_min":136,"x_max":1101,"o":"m 856 1204 q 389 1157 522 1204 q 136 445 136 1046 q 159 191 136 318 q 413 -94 215 -94 q 880 -30 675 -54 q 1085 128 1061 -30 q 943 294 1052 294 q 476 239 873 294 q 452 413 452 408 q 705 429 629 429 q 935 587 935 429 q 777 753 909 753 q 484 737 700 753 l 476 737 l 500 825 q 880 888 500 888 l 966 888 q 1101 1023 1060 888 l 1101 1070 q 966 1204 1101 1163 l 856 1204 m 932 1786 q 810 1841 882 1841 q 617 1766 728 1841 l 600 1750 q 484 1488 484 1644 q 486 1453 484 1471 q 516 1395 493 1420 l 532 1377 q 652 1329 596 1329 q 745 1368 702 1329 l 762 1384 q 830 1510 781 1401 q 910 1551 890 1533 l 928 1567 q 974 1666 974 1609 q 932 1786 974 1719 "},"Ê":{"ha":1237,"x_min":136,"x_max":1101,"o":"m 856 1204 q 389 1157 522 1204 q 136 445 136 1046 q 159 191 136 318 q 413 -94 215 -94 q 880 -30 675 -54 q 1085 128 1061 -30 q 943 294 1052 294 q 476 239 873 294 q 452 413 452 408 q 705 429 629 429 q 935 587 935 429 q 777 753 909 753 q 484 737 700 753 l 476 737 l 500 825 q 880 888 500 888 l 966 888 q 1101 1023 1060 888 l 1101 1070 q 966 1204 1101 1163 l 856 1204 m 559 1945 q 457 1898 528 1945 q 227 1486 227 1575 q 362 1328 256 1328 l 410 1328 q 583 1525 503 1328 l 591 1525 q 837 1328 728 1328 l 852 1328 q 1003 1478 976 1328 l 1003 1518 q 844 1723 1003 1564 q 600 1945 722 1945 l 559 1945 "},"Ë":{"ha":1237,"x_min":136,"x_max":1101,"o":"m 856 1204 q 389 1157 522 1204 q 136 445 136 1046 q 159 191 136 318 q 413 -94 215 -94 q 880 -30 675 -54 q 1085 128 1061 -30 q 943 294 1052 294 q 476 239 873 294 q 452 413 452 408 q 705 429 629 429 q 935 587 935 429 q 777 753 909 753 q 484 737 700 753 l 476 737 l 500 825 q 880 888 500 888 l 966 888 q 1101 1023 1060 888 l 1101 1070 q 966 1204 1101 1163 l 856 1204 m 387 1681 q 197 1507 235 1681 q 220 1428 197 1491 q 395 1325 273 1325 l 418 1325 q 569 1507 551 1325 q 387 1681 569 1650 m 809 1686 q 619 1512 658 1686 q 643 1432 619 1495 q 817 1330 695 1330 l 841 1330 q 991 1512 973 1330 q 809 1686 991 1655 "},"Ì":{"ha":635,"x_min":21,"x_max":511,"o":"m 294 1196 q 136 1038 170 1196 q 183 706 183 840 q 152 120 183 587 q 302 -30 152 -3 l 318 -30 q 437 25 376 -30 q 500 690 500 104 q 484 927 500 783 q 294 1196 458 1196 m 63 1790 q 21 1670 21 1723 q 67 1571 21 1613 l 85 1555 q 165 1514 104 1537 q 233 1388 214 1405 l 250 1372 q 343 1333 293 1333 q 463 1381 399 1333 l 479 1399 q 509 1457 502 1424 q 511 1492 511 1475 q 395 1754 511 1648 l 378 1770 q 184 1845 267 1845 q 63 1790 113 1845 "},"Í":{"ha":635,"x_min":136,"x_max":673,"o":"m 294 1196 q 136 1038 170 1196 q 183 706 183 840 q 152 120 183 587 q 302 -30 152 -3 l 318 -30 q 437 25 376 -30 q 500 690 500 104 q 484 927 500 783 q 294 1196 458 1196 m 631 1786 q 510 1841 581 1841 q 317 1766 427 1841 l 299 1750 q 184 1488 184 1644 q 185 1453 184 1471 q 216 1395 193 1420 l 232 1377 q 351 1329 296 1329 q 444 1368 401 1329 l 462 1384 q 530 1510 481 1401 q 610 1551 590 1533 l 627 1567 q 673 1666 673 1609 q 631 1786 673 1719 "},"Î":{"ha":635,"x_min":-73,"x_max":703,"o":"m 294 1196 q 136 1038 170 1196 q 183 706 183 840 q 152 120 183 587 q 302 -30 152 -3 l 318 -30 q 437 25 376 -30 q 500 690 500 104 q 484 927 500 783 q 294 1196 458 1196 m 259 1945 q 157 1898 228 1945 q -73 1486 -73 1575 q 62 1328 -44 1328 l 109 1328 q 283 1525 203 1328 l 291 1525 q 536 1328 428 1328 l 552 1328 q 703 1478 675 1328 l 703 1518 q 544 1723 703 1564 q 299 1945 422 1945 l 259 1945 "},"Ï":{"ha":635,"x_min":-104,"x_max":691,"o":"m 294 1196 q 136 1038 170 1196 q 183 706 183 840 q 152 120 183 587 q 302 -30 152 -3 l 318 -30 q 437 25 376 -30 q 500 690 500 104 q 484 927 500 783 q 294 1196 458 1196 m 86 1681 q -104 1507 -65 1681 q -80 1428 -104 1491 q 94 1325 -28 1325 l 118 1325 q 269 1507 250 1325 q 86 1681 269 1650 m 509 1686 q 319 1512 357 1686 q 342 1432 319 1495 q 517 1330 395 1330 l 541 1330 q 691 1512 673 1330 q 509 1686 691 1655 "},"Ð":{"ha":1576,"x_min":136,"x_max":1440,"o":"m 685 463 q 831 456 741 462 q 974 598 974 507 l 974 646 q 808 788 974 751 q 682 786 772 788 q 688 846 684 819 q 783 957 688 957 l 807 957 q 878 949 836 957 q 1116 633 1116 860 l 1116 593 q 1100 498 1116 553 q 800 277 1004 277 q 688 292 731 277 q 685 463 686 387 m 356 777 l 300 771 q 136 614 136 761 q 173 476 136 504 q 267 449 211 449 q 361 459 307 449 q 364 158 364 278 q 498 -40 364 -16 l 554 -40 q 602 -24 576 -40 q 776 -47 637 -40 q 1053 7 910 -47 q 1440 609 1440 220 q 1345 965 1440 767 q 800 1282 1128 1282 q 356 783 356 1282 l 356 777 "},"Ñ":{"ha":1388,"x_min":79,"x_max":1252,"o":"m 1093 1165 l 1046 1162 q 927 1015 966 1157 q 931 685 927 839 q 935 445 935 531 q 761 706 871 555 q 405 1023 564 1023 q 302 991 347 1015 q 136 492 136 924 l 136 405 q 302 -54 144 -54 l 326 -54 q 484 86 484 -17 l 452 579 q 658 269 522 514 q 959 -38 802 -38 l 1006 -38 q 1156 41 1076 -38 q 1252 603 1252 155 l 1252 1015 q 1093 1165 1252 1128 m 1045 1864 q 918 1801 983 1864 q 815 1643 864 1653 l 800 1643 l 752 1682 q 459 1832 619 1832 l 412 1832 q 218 1772 317 1832 q 79 1539 119 1712 l 79 1531 q 214 1373 106 1373 l 269 1373 q 357 1421 328 1373 q 444 1516 397 1505 q 499 1476 451 1516 q 808 1318 638 1318 q 950 1350 894 1318 q 1211 1706 1211 1499 q 1061 1864 1187 1864 l 1045 1864 "},"Ò":{"ha":1482,"x_min":136,"x_max":1347,"o":"m 1307 793 q 839 1165 1112 1165 q 350 982 565 1165 q 136 476 136 800 q 176 286 144 372 q 682 -14 329 -14 l 737 -14 q 1085 89 922 -14 q 1347 547 1347 279 l 1347 579 q 1307 793 1347 684 m 568 747 q 775 838 676 838 q 874 820 823 838 q 1030 571 1030 767 q 745 302 1030 339 l 674 302 q 460 460 460 329 l 460 484 q 514 701 460 656 q 568 747 568 747 m 564 1790 q 522 1670 522 1723 q 568 1571 522 1613 l 586 1555 q 666 1514 606 1537 q 734 1388 715 1405 l 751 1372 q 844 1333 794 1333 q 964 1381 900 1333 l 980 1399 q 1010 1457 1003 1424 q 1012 1492 1012 1475 q 897 1754 1012 1648 l 879 1770 q 686 1845 768 1845 q 564 1790 614 1845 "},"Ó":{"ha":1482,"x_min":136,"x_max":1347,"o":"m 1307 793 q 839 1165 1112 1165 q 350 982 565 1165 q 136 476 136 800 q 176 286 144 372 q 682 -14 329 -14 l 737 -14 q 1085 89 922 -14 q 1347 547 1347 279 l 1347 579 q 1307 793 1347 684 m 568 747 q 775 838 676 838 q 874 820 823 838 q 1030 571 1030 767 q 745 302 1030 339 l 674 302 q 460 460 460 329 l 460 484 q 514 701 460 656 q 568 747 568 747 m 1133 1786 q 1011 1841 1082 1841 q 818 1766 928 1841 l 800 1750 q 685 1488 685 1644 q 686 1453 685 1471 q 717 1395 694 1420 l 733 1377 q 852 1329 797 1329 q 945 1368 903 1329 l 963 1384 q 1031 1510 982 1401 q 1111 1551 1091 1533 l 1128 1567 q 1175 1666 1175 1609 q 1133 1786 1175 1719 "},"Ô":{"ha":1482,"x_min":136,"x_max":1347,"o":"m 1307 793 q 839 1165 1112 1165 q 350 982 565 1165 q 136 476 136 800 q 176 286 144 372 q 682 -14 329 -14 l 737 -14 q 1085 89 922 -14 q 1347 547 1347 279 l 1347 579 q 1307 793 1347 684 m 568 747 q 775 838 676 838 q 874 820 823 838 q 1030 571 1030 767 q 745 302 1030 339 l 674 302 q 460 460 460 329 l 460 484 q 514 701 460 656 q 568 747 568 747 m 760 1945 q 658 1898 729 1945 q 428 1486 428 1575 q 563 1328 457 1328 l 610 1328 q 784 1525 704 1328 l 792 1525 q 1038 1328 929 1328 l 1053 1328 q 1204 1478 1177 1328 l 1204 1518 q 1045 1723 1204 1564 q 800 1945 923 1945 l 760 1945 "},"Õ":{"ha":1482,"x_min":136,"x_max":1347,"o":"m 1307 793 q 839 1165 1112 1165 q 350 982 565 1165 q 136 476 136 800 q 176 286 144 372 q 682 -14 329 -14 l 737 -14 q 1085 89 922 -14 q 1347 547 1347 279 l 1347 579 q 1307 793 1347 684 m 568 747 q 775 838 676 838 q 874 820 823 838 q 1030 571 1030 767 q 745 302 1030 339 l 674 302 q 460 460 460 329 l 460 484 q 514 701 460 656 q 568 747 568 747 m 1171 1864 q 1044 1801 1108 1864 q 941 1643 989 1653 l 925 1643 l 878 1682 q 585 1832 745 1832 l 537 1832 q 343 1772 443 1832 q 205 1539 244 1712 l 205 1531 q 340 1373 231 1373 l 394 1373 q 482 1421 453 1373 q 569 1516 522 1505 q 625 1476 576 1516 q 933 1318 764 1318 q 1076 1350 1019 1318 q 1337 1706 1337 1499 q 1186 1864 1312 1864 l 1171 1864 "},"Ö":{"ha":1482,"x_min":136,"x_max":1347,"o":"m 1307 793 q 839 1165 1112 1165 q 350 982 565 1165 q 136 476 136 800 q 176 286 144 372 q 682 -14 329 -14 l 737 -14 q 1085 89 922 -14 q 1347 547 1347 279 l 1347 579 q 1307 793 1347 684 m 568 747 q 775 838 676 838 q 874 820 823 838 q 1030 571 1030 767 q 745 302 1030 339 l 674 302 q 460 460 460 329 l 460 484 q 514 701 460 656 q 568 747 568 747 m 587 1681 q 397 1507 436 1681 q 421 1428 397 1491 q 595 1325 473 1325 l 619 1325 q 770 1507 751 1325 q 587 1681 770 1650 m 1010 1686 q 820 1512 859 1686 q 844 1432 820 1495 q 1018 1330 896 1330 l 1042 1330 q 1192 1512 1174 1330 q 1010 1686 1192 1655 "},"×":{"ha":1224,"x_min":136,"x_max":1088,"o":"m 963 1000 q 863 1044 918 1044 q 739 998 806 1044 l 613 844 l 607 838 q 499 932 536 907 q 285 1051 376 1051 q 184 1006 229 1051 l 179 1000 q 136 871 136 926 q 171 787 136 821 q 404 606 220 739 q 210 429 227 447 q 174 314 174 363 q 208 234 174 267 l 259 184 q 332 164 295 164 q 509 260 416 164 l 637 391 q 818 193 733 298 l 852 170 q 937 153 898 153 q 1048 201 1001 153 q 1075 241 1071 237 q 1088 309 1088 275 q 1004 475 1088 393 l 845 629 l 922 709 q 1021 890 1021 810 q 974 989 1021 945 l 963 1000 "},"Ø":{"ha":1482,"x_min":136,"x_max":1347,"o":"m 714 829 q 475 399 560 568 q 460 460 460 427 l 460 484 q 568 747 460 656 q 714 829 644 810 m 788 309 q 1005 705 882 498 q 1030 571 1030 649 q 788 309 1030 357 m 1196 966 q 1208 1013 1208 994 l 1208 1029 q 1066 1187 1208 1149 l 1034 1187 q 946 1150 994 1187 q 839 1165 894 1165 q 350 982 565 1165 q 136 476 136 800 q 176 286 144 372 q 371 66 250 140 q 512 -55 384 -31 l 536 -55 q 633 -13 585 -55 q 682 -14 656 -14 l 737 -14 q 1085 89 922 -14 q 1347 547 1347 279 l 1347 579 q 1307 793 1347 684 q 1196 966 1255 893 "},"Ù":{"ha":1284,"x_min":136,"x_max":1149,"o":"m 983 1204 q 824 1094 884 1204 q 785 635 800 694 q 532 318 715 318 l 500 318 q 452 484 467 318 l 452 564 q 500 1015 452 779 q 501 1042 501 1029 q 397 1179 501 1162 q 332 1184 361 1184 q 239 1157 268 1184 q 136 540 136 1069 l 136 492 q 191 199 136 341 q 468 -6 307 -6 l 532 -6 q 817 89 664 -6 q 983 -22 885 -22 q 1133 128 1101 -22 l 1133 152 q 1101 516 1109 293 q 1149 1038 1109 679 q 983 1204 1149 1178 m 387 1790 q 345 1670 345 1723 q 391 1571 345 1613 l 409 1555 q 489 1514 429 1537 q 557 1388 538 1405 l 574 1372 q 667 1333 617 1333 q 787 1381 723 1333 l 803 1399 q 833 1457 826 1424 q 835 1492 835 1475 q 720 1754 835 1648 l 702 1770 q 509 1845 591 1845 q 387 1790 437 1845 "},"Ú":{"ha":1284,"x_min":136,"x_max":1149,"o":"m 983 1204 q 824 1094 884 1204 q 785 635 800 694 q 532 318 715 318 l 500 318 q 452 484 467 318 l 452 564 q 500 1015 452 779 q 501 1042 501 1029 q 397 1179 501 1162 q 332 1184 361 1184 q 239 1157 268 1184 q 136 540 136 1069 l 136 492 q 191 199 136 341 q 468 -6 307 -6 l 532 -6 q 817 89 664 -6 q 983 -22 885 -22 q 1133 128 1101 -22 l 1133 152 q 1101 516 1109 293 q 1149 1038 1109 679 q 983 1204 1149 1178 m 956 1786 q 834 1841 905 1841 q 641 1766 751 1841 l 623 1750 q 508 1488 508 1644 q 509 1453 508 1471 q 540 1395 517 1420 l 556 1377 q 675 1329 620 1329 q 768 1368 726 1329 l 786 1384 q 854 1510 805 1401 q 934 1551 914 1533 l 951 1567 q 998 1666 998 1609 q 956 1786 998 1719 "},"Û":{"ha":1284,"x_min":136,"x_max":1149,"o":"m 983 1204 q 824 1094 884 1204 q 785 635 800 694 q 532 318 715 318 l 500 318 q 452 484 467 318 l 452 564 q 500 1015 452 779 q 501 1042 501 1029 q 397 1179 501 1162 q 332 1184 361 1184 q 239 1157 268 1184 q 136 540 136 1069 l 136 492 q 191 199 136 341 q 468 -6 307 -6 l 532 -6 q 817 89 664 -6 q 983 -22 885 -22 q 1133 128 1101 -22 l 1133 152 q 1101 516 1109 293 q 1149 1038 1109 679 q 983 1204 1149 1178 m 583 1945 q 481 1898 552 1945 q 251 1486 251 1575 q 386 1328 280 1328 l 433 1328 q 607 1525 527 1328 l 615 1525 q 861 1328 752 1328 l 876 1328 q 1027 1478 1000 1328 l 1027 1518 q 868 1723 1027 1564 q 623 1945 746 1945 l 583 1945 "},"Ü":{"ha":1284,"x_min":136,"x_max":1149,"o":"m 983 1204 q 824 1094 884 1204 q 785 635 800 694 q 532 318 715 318 l 500 318 q 452 484 467 318 l 452 564 q 500 1015 452 779 q 501 1042 501 1029 q 397 1179 501 1162 q 332 1184 361 1184 q 239 1157 268 1184 q 136 540 136 1069 l 136 492 q 191 199 136 341 q 468 -6 307 -6 l 532 -6 q 817 89 664 -6 q 983 -22 885 -22 q 1133 128 1101 -22 l 1133 152 q 1101 516 1109 293 q 1149 1038 1109 679 q 983 1204 1149 1178 m 410 1681 q 220 1507 259 1681 q 244 1428 220 1491 q 418 1325 296 1325 l 442 1325 q 593 1507 574 1325 q 410 1681 593 1650 m 833 1686 q 643 1512 682 1686 q 667 1432 643 1495 q 841 1330 719 1330 l 865 1330 q 1015 1512 997 1330 q 833 1686 1015 1655 "},"Ý":{"ha":1388,"x_min":136,"x_max":1252,"o":"m 1093 1173 q 666 832 973 1173 l 650 840 q 310 1149 421 1149 l 286 1149 q 136 991 163 1149 q 176 888 136 945 l 492 547 l 492 437 q 476 120 492 265 q 642 -46 476 -14 q 767 0 709 -42 q 825 416 825 43 q 824 547 825 477 q 1069 793 1067 781 q 1252 1015 1252 910 q 1093 1173 1252 1154 m 1007 1786 q 886 1841 957 1841 q 692 1766 803 1841 l 675 1750 q 559 1488 559 1644 q 561 1453 559 1471 q 591 1395 568 1420 l 608 1377 q 727 1329 671 1329 q 820 1368 777 1329 l 838 1384 q 905 1510 857 1401 q 985 1551 966 1533 l 1003 1567 q 1049 1666 1049 1609 q 1007 1786 1049 1719 "},"Þ":{"ha":1308,"x_min":136,"x_max":1173,"o":"m 508 523 l 508 705 q 610 776 513 776 l 690 776 q 853 646 848 744 q 854 633 854 640 q 818 542 854 579 q 634 499 777 499 q 508 523 508 499 m 491 1080 q 484 1149 488 1113 q 294 1419 458 1419 q 136 1261 170 1419 q 183 928 183 1062 q 208 143 205 181 q 215 -39 215 -1 q 373 -197 239 -197 q 468 -165 410 -197 q 547 1 547 -85 q 539 182 547 37 l 642 182 q 785 198 706 182 q 1173 642 1173 326 q 1156 752 1173 692 q 658 1101 1015 1101 q 491 1080 580 1101 "},"ß":{"ha":1411,"x_min":136,"x_max":1276,"o":"m 756 244 q 651 150 651 210 q 684 60 651 112 q 833 -22 734 -22 q 972 9 893 -22 q 1276 374 1276 101 q 1069 690 1276 568 q 1101 848 1093 761 q 1078 975 1101 888 q 603 1252 955 1252 q 437 1228 583 1252 q 136 848 136 1131 l 136 635 q 176 96 136 343 q 318 -62 219 -62 q 345 -62 332 -62 q 507 12 471 -62 q 527 95 527 53 q 507 180 527 137 q 468 374 468 265 q 785 421 688 421 l 808 421 q 943 374 911 421 q 808 261 861 279 q 756 244 756 244 m 460 713 l 460 825 q 603 927 460 927 q 777 848 777 918 q 460 713 777 735 "},"à":{"ha":1482,"x_min":136,"x_max":1347,"o":"m 753 1190 q 634 1135 695 1190 q 397 668 593 1099 q 136 66 136 106 l 136 27 q 271 -108 136 -68 l 310 -108 q 508 138 414 -108 q 587 134 547 134 q 966 209 778 134 q 1188 -37 1046 -37 q 1347 106 1347 5 l 1347 170 q 1006 882 1196 448 q 777 1190 911 1190 l 753 1190 m 745 668 q 845 494 761 668 q 713 469 775 469 q 666 473 689 469 l 659 473 l 745 668 m 509 1813 q 467 1693 467 1747 q 513 1595 467 1637 l 530 1579 q 610 1537 550 1561 q 678 1412 659 1429 l 696 1396 q 789 1356 739 1356 q 908 1405 844 1356 l 924 1423 q 955 1480 947 1448 q 956 1516 956 1499 q 841 1777 956 1672 l 823 1794 q 630 1868 713 1868 q 509 1813 559 1868 "},"á":{"ha":1482,"x_min":136,"x_max":1347,"o":"m 753 1190 q 634 1135 695 1190 q 397 668 593 1099 q 136 66 136 106 l 136 27 q 271 -108 136 -68 l 310 -108 q 508 138 414 -108 q 587 134 547 134 q 966 209 778 134 q 1188 -37 1046 -37 q 1347 106 1347 5 l 1347 170 q 1006 882 1196 448 q 777 1190 911 1190 l 753 1190 m 745 668 q 845 494 761 668 q 713 469 775 469 q 666 473 689 469 l 659 473 l 745 668 m 1077 1809 q 956 1864 1027 1864 q 762 1790 873 1864 l 745 1773 q 629 1512 629 1668 q 631 1476 629 1495 q 661 1419 638 1444 l 677 1401 q 797 1352 741 1352 q 890 1392 847 1352 l 907 1408 q 975 1533 926 1425 q 1055 1575 1036 1557 l 1073 1591 q 1119 1689 1119 1633 q 1077 1809 1119 1743 "},"â":{"ha":1482,"x_min":136,"x_max":1347,"o":"m 753 1190 q 634 1135 695 1190 q 397 668 593 1099 q 136 66 136 106 l 136 27 q 271 -108 136 -68 l 310 -108 q 508 138 414 -108 q 587 134 547 134 q 966 209 778 134 q 1188 -37 1046 -37 q 1347 106 1347 5 l 1347 170 q 1006 882 1196 448 q 777 1190 911 1190 l 753 1190 m 745 668 q 845 494 761 668 q 713 469 775 469 q 666 473 689 469 l 659 473 l 745 668 m 705 1969 q 602 1921 673 1969 q 372 1510 372 1599 q 507 1352 401 1352 l 555 1352 q 728 1549 648 1352 l 736 1549 q 982 1352 873 1352 l 998 1352 q 1148 1501 1121 1352 l 1148 1541 q 989 1747 1148 1588 q 745 1969 867 1969 l 705 1969 "},"ã":{"ha":1482,"x_min":136,"x_max":1347,"o":"m 753 1190 q 634 1135 695 1190 q 397 668 593 1099 q 136 66 136 106 l 136 27 q 271 -108 136 -68 l 310 -108 q 508 138 414 -108 q 587 134 547 134 q 966 209 778 134 q 1188 -37 1046 -37 q 1347 106 1347 5 l 1347 170 q 1006 882 1196 448 q 777 1190 911 1190 l 753 1190 m 745 668 q 845 494 761 668 q 713 469 775 469 q 666 473 689 469 l 659 473 l 745 668 m 1115 1887 q 988 1824 1053 1887 q 885 1666 934 1677 l 869 1666 l 822 1706 q 529 1856 689 1856 l 481 1856 q 288 1796 387 1856 q 149 1563 189 1735 l 149 1555 q 284 1397 176 1397 l 338 1397 q 427 1444 397 1397 q 513 1539 467 1529 q 569 1500 521 1539 q 878 1341 708 1341 q 1020 1373 964 1341 q 1281 1729 1281 1523 q 1131 1887 1257 1887 l 1115 1887 "},"ä":{"ha":1482,"x_min":136,"x_max":1347,"o":"m 753 1190 q 634 1135 695 1190 q 397 668 593 1099 q 136 66 136 106 l 136 27 q 271 -108 136 -68 l 310 -108 q 508 138 414 -108 q 587 134 547 134 q 966 209 778 134 q 1188 -37 1046 -37 q 1347 106 1347 5 l 1347 170 q 1006 882 1196 448 q 777 1190 911 1190 l 753 1190 m 745 668 q 845 494 761 668 q 713 469 775 469 q 666 473 689 469 l 659 473 l 745 668 m 532 1705 q 342 1531 380 1705 q 366 1451 342 1514 q 540 1349 418 1349 l 564 1349 q 714 1531 696 1349 q 532 1705 714 1674 m 954 1710 q 764 1535 803 1710 q 788 1456 764 1519 q 962 1354 840 1354 l 986 1354 q 1137 1535 1118 1354 q 954 1710 1137 1678 "},"å":{"ha":1482,"x_min":136,"x_max":1347,"o":"m 753 1190 q 634 1135 695 1190 q 397 668 593 1099 q 136 66 136 106 l 136 27 q 271 -108 136 -68 l 310 -108 q 508 138 414 -108 q 587 134 547 134 q 966 209 778 134 q 1188 -37 1046 -37 q 1347 106 1347 5 l 1347 170 q 1006 882 1196 448 q 777 1190 911 1190 l 753 1190 m 745 668 q 845 494 761 668 q 713 469 775 469 q 666 473 689 469 l 659 473 l 745 668 m 739 1669 q 549 1495 588 1669 q 573 1415 549 1478 q 747 1313 625 1313 l 771 1313 q 922 1495 903 1313 q 739 1669 922 1638 m 740 1587 q 838 1493 838 1570 q 758 1396 828 1396 l 745 1396 q 651 1451 679 1396 q 638 1493 638 1485 q 740 1587 659 1587 "},"æ":{"ha":2110,"x_min":136,"x_max":1975,"o":"m 745 668 q 845 494 761 668 q 713 469 775 469 q 666 473 689 469 l 659 473 l 745 668 m 1124 -23 q 1286 -94 1188 -94 q 1753 -30 1549 -54 q 1959 128 1935 -30 q 1816 294 1925 294 q 1350 239 1747 294 q 1326 413 1326 408 q 1579 429 1502 429 q 1809 587 1809 429 q 1650 753 1782 753 q 1358 737 1573 753 l 1350 737 l 1373 825 q 1753 888 1373 888 l 1840 888 q 1975 1023 1933 888 l 1975 1070 q 1840 1204 1975 1163 l 1729 1204 q 1263 1157 1396 1204 q 1040 805 1098 1085 q 1006 882 1023 843 q 777 1190 911 1190 l 753 1190 q 634 1135 695 1190 q 397 668 593 1099 q 136 66 136 106 l 136 27 q 271 -108 136 -68 l 310 -108 q 508 138 414 -108 q 587 134 547 134 q 966 209 778 134 q 1124 -23 1027 21 "},"ç":{"ha":1213,"x_min":136,"x_max":1078,"o":"m 623 -74 q 650 -218 633 -151 q 536 -342 612 -308 q 460 -438 460 -376 q 545 -522 460 -500 q 610 -530 579 -530 l 614 -530 q 697 -511 659 -530 q 840 -227 840 -400 l 840 -203 q 814 -73 828 -126 q 892 -62 860 -69 q 1009 -1 959 -46 q 1059 95 1059 43 q 1034 196 1059 138 q 908 291 994 291 q 847 281 880 291 q 644 245 735 245 q 610 247 627 245 q 452 516 452 322 q 460 579 452 523 q 769 896 523 896 l 777 896 q 919 793 822 793 q 1078 959 1048 793 q 793 1220 1078 1182 l 753 1220 q 539 1173 667 1220 q 136 516 136 971 q 183 271 136 397 q 623 -74 304 -42 "},"è":{"ha":1237,"x_min":136,"x_max":1101,"o":"m 856 1204 q 389 1157 522 1204 q 136 445 136 1046 q 159 191 136 318 q 413 -94 215 -94 q 880 -30 675 -54 q 1085 128 1061 -30 q 943 294 1052 294 q 476 239 873 294 q 452 413 452 408 q 705 429 629 429 q 935 587 935 429 q 777 753 909 753 q 484 737 700 753 l 476 737 l 500 825 q 880 888 500 888 l 966 888 q 1101 1023 1060 888 l 1101 1070 q 966 1204 1101 1163 l 856 1204 m 535 1790 q 493 1670 493 1723 q 539 1571 493 1613 l 557 1555 q 637 1514 576 1537 q 705 1388 686 1405 l 722 1372 q 815 1333 765 1333 q 935 1381 871 1333 l 951 1399 q 981 1457 974 1424 q 983 1492 983 1475 q 867 1754 983 1648 l 850 1770 q 656 1845 739 1845 q 535 1790 585 1845 "},"é":{"ha":1237,"x_min":136,"x_max":1145,"o":"m 856 1204 q 389 1157 522 1204 q 136 445 136 1046 q 159 191 136 318 q 413 -94 215 -94 q 880 -30 675 -54 q 1085 128 1061 -30 q 943 294 1052 294 q 476 239 873 294 q 452 413 452 408 q 705 429 629 429 q 935 587 935 429 q 777 753 909 753 q 484 737 700 753 l 476 737 l 500 825 q 880 888 500 888 l 966 888 q 1101 1023 1060 888 l 1101 1070 q 966 1204 1101 1163 l 856 1204 m 1103 1786 q 982 1841 1053 1841 q 789 1766 899 1841 l 771 1750 q 656 1488 656 1644 q 657 1453 656 1471 q 688 1395 665 1420 l 704 1377 q 823 1329 768 1329 q 916 1368 873 1329 l 934 1384 q 1002 1510 953 1401 q 1082 1551 1062 1533 l 1099 1567 q 1145 1666 1145 1609 q 1103 1786 1145 1719 "},"ê":{"ha":1237,"x_min":136,"x_max":1175,"o":"m 856 1204 q 389 1157 522 1204 q 136 445 136 1046 q 159 191 136 318 q 413 -94 215 -94 q 880 -30 675 -54 q 1085 128 1061 -30 q 943 294 1052 294 q 476 239 873 294 q 452 413 452 408 q 705 429 629 429 q 935 587 935 429 q 777 753 909 753 q 484 737 700 753 l 476 737 l 500 825 q 880 888 500 888 l 966 888 q 1101 1023 1060 888 l 1101 1070 q 966 1204 1101 1163 l 856 1204 m 731 1945 q 629 1898 700 1945 q 399 1486 399 1575 q 534 1328 428 1328 l 581 1328 q 755 1525 675 1328 l 763 1525 q 1008 1328 900 1328 l 1024 1328 q 1175 1478 1147 1328 l 1175 1518 q 1016 1723 1175 1564 q 771 1945 894 1945 l 731 1945 "},"ë":{"ha":1237,"x_min":136,"x_max":1163,"o":"m 856 1204 q 389 1157 522 1204 q 136 445 136 1046 q 159 191 136 318 q 413 -94 215 -94 q 880 -30 675 -54 q 1085 128 1061 -30 q 943 294 1052 294 q 476 239 873 294 q 452 413 452 408 q 705 429 629 429 q 935 587 935 429 q 777 753 909 753 q 484 737 700 753 l 476 737 l 500 825 q 880 888 500 888 l 966 888 q 1101 1023 1060 888 l 1101 1070 q 966 1204 1101 1163 l 856 1204 m 558 1681 q 368 1507 407 1681 q 392 1428 368 1491 q 566 1325 444 1325 l 590 1325 q 741 1507 722 1325 q 558 1681 741 1650 m 981 1686 q 791 1512 829 1686 q 814 1432 791 1495 q 989 1330 867 1330 l 1013 1330 q 1163 1512 1145 1330 q 981 1686 1163 1655 "},"ì":{"ha":779,"x_min":136,"x_max":644,"o":"m 438 1196 q 279 1038 314 1196 q 327 706 327 840 q 296 120 327 587 q 446 -30 296 -3 l 462 -30 q 581 25 519 -30 q 644 690 644 104 q 628 927 644 783 q 438 1196 602 1196 m 178 1678 q 136 1558 136 1611 q 182 1459 136 1501 l 199 1443 q 279 1402 219 1426 q 347 1276 328 1293 l 365 1260 q 458 1221 408 1221 q 577 1270 513 1221 l 593 1287 q 624 1345 616 1312 q 625 1380 625 1363 q 510 1642 625 1536 l 492 1658 q 299 1733 382 1733 q 178 1678 228 1733 "},"í":{"ha":780,"x_min":136,"x_max":644,"o":"m 294 1196 q 136 1038 170 1196 q 183 706 183 840 q 152 120 183 587 q 302 -30 152 -3 l 318 -30 q 437 25 376 -30 q 500 690 500 104 q 484 927 500 783 q 294 1196 458 1196 m 602 1678 q 481 1733 552 1733 q 288 1658 398 1733 l 270 1642 q 155 1380 155 1536 q 156 1345 155 1363 q 186 1287 163 1312 l 203 1270 q 322 1221 267 1221 q 415 1260 372 1221 l 433 1276 q 500 1402 452 1293 q 581 1443 561 1426 l 598 1459 q 644 1558 644 1501 q 602 1678 644 1611 "},"î":{"ha":1047,"x_min":136,"x_max":911,"o":"m 500 1196 q 341 1038 376 1196 q 389 706 389 840 q 357 120 389 587 q 507 -30 357 -3 l 524 -30 q 642 25 581 -30 q 705 690 705 104 q 690 927 705 783 q 500 1196 664 1196 m 468 1866 q 366 1819 437 1866 q 136 1407 136 1497 q 271 1249 165 1249 l 318 1249 q 492 1447 412 1249 l 500 1447 q 745 1249 637 1249 l 761 1249 q 911 1399 884 1249 l 911 1439 q 753 1645 911 1485 q 508 1866 631 1866 l 468 1866 "},"ï":{"ha":1066,"x_min":136,"x_max":930,"o":"m 509 1196 q 351 1038 385 1196 q 398 706 398 840 q 367 120 398 587 q 517 -30 367 -3 l 533 -30 q 652 25 591 -30 q 715 690 715 104 q 699 927 715 783 q 509 1196 673 1196 m 326 1592 q 136 1418 174 1592 q 159 1339 136 1402 q 334 1236 212 1236 l 357 1236 q 508 1418 490 1236 q 326 1592 508 1561 m 748 1597 q 558 1423 597 1597 q 582 1343 558 1407 q 756 1241 634 1241 l 780 1241 q 930 1423 912 1241 q 748 1597 930 1566 "},"ð":{"ha":1482,"x_min":136,"x_max":1347,"o":"m 460 484 q 568 747 460 656 q 775 838 676 838 q 874 820 823 838 q 1030 571 1030 767 q 745 302 1030 339 l 674 302 q 460 460 460 329 l 460 484 m 852 1444 q 939 1524 939 1506 q 907 1578 939 1556 q 899 1580 904 1580 q 767 1516 867 1580 q 597 1575 671 1575 q 476 1520 526 1575 q 434 1400 434 1454 q 480 1302 434 1344 l 496 1287 q 434 1193 434 1215 l 434 1190 q 483 1156 440 1156 l 486 1156 q 593 1236 517 1157 q 702 1146 638 1209 q 351 983 480 1093 q 136 476 136 800 q 176 286 144 372 q 682 -14 329 -14 l 737 -14 q 1085 89 922 -14 q 1347 547 1347 279 l 1347 579 q 1307 793 1347 684 q 1031 1246 1139 1114 q 852 1444 944 1354 "},"ñ":{"ha":1388,"x_min":79,"x_max":1252,"o":"m 1093 1165 l 1046 1162 q 927 1015 966 1157 q 931 685 927 839 q 935 445 935 531 q 761 706 871 555 q 405 1023 564 1023 q 302 991 347 1015 q 136 492 136 924 l 136 405 q 302 -54 144 -54 l 326 -54 q 484 86 484 -17 l 452 579 q 658 269 522 514 q 959 -38 802 -38 l 1006 -38 q 1156 41 1076 -38 q 1252 603 1252 155 l 1252 1015 q 1093 1165 1252 1128 m 1045 1761 q 918 1697 983 1761 q 815 1539 864 1550 l 800 1539 l 752 1579 q 459 1729 619 1729 l 412 1729 q 218 1669 317 1729 q 79 1436 119 1609 l 79 1428 q 214 1270 106 1270 l 269 1270 q 357 1318 328 1270 q 444 1413 397 1402 q 499 1373 451 1413 q 808 1215 638 1215 q 950 1246 894 1215 q 1211 1603 1211 1396 q 1061 1761 1187 1761 l 1045 1761 "},"ò":{"ha":1482,"x_min":136,"x_max":1347,"o":"m 1307 793 q 839 1165 1112 1165 q 350 982 565 1165 q 136 476 136 800 q 176 286 144 372 q 682 -14 329 -14 l 737 -14 q 1085 89 922 -14 q 1347 547 1347 279 l 1347 579 q 1307 793 1347 684 m 568 747 q 775 838 676 838 q 874 820 823 838 q 1030 571 1030 767 q 745 302 1030 339 l 674 302 q 460 460 460 329 l 460 484 q 514 701 460 656 q 568 747 568 747 m 486 1687 q 444 1567 444 1620 q 490 1468 444 1510 l 508 1452 q 588 1411 528 1434 q 656 1285 637 1302 l 673 1269 q 766 1230 716 1230 q 886 1278 822 1230 l 902 1296 q 932 1354 925 1321 q 934 1389 934 1372 q 819 1651 934 1545 l 801 1667 q 608 1742 690 1742 q 486 1687 536 1742 "},"ó":{"ha":1482,"x_min":136,"x_max":1347,"o":"m 1307 793 q 839 1165 1112 1165 q 350 982 565 1165 q 136 476 136 800 q 176 286 144 372 q 682 -14 329 -14 l 737 -14 q 1085 89 922 -14 q 1347 547 1347 279 l 1347 579 q 1307 793 1347 684 m 568 747 q 775 838 676 838 q 874 820 823 838 q 1030 571 1030 767 q 745 302 1030 339 l 674 302 q 460 460 460 329 l 460 484 q 514 701 460 656 q 568 747 568 747 m 1055 1683 q 933 1737 1004 1737 q 740 1663 850 1737 l 722 1647 q 607 1385 607 1541 q 608 1350 607 1368 q 639 1292 616 1317 l 655 1274 q 774 1225 719 1225 q 867 1265 825 1225 l 885 1281 q 953 1407 904 1298 q 1033 1448 1013 1430 l 1050 1464 q 1097 1563 1097 1506 q 1055 1683 1097 1616 "},"ô":{"ha":1482,"x_min":136,"x_max":1347,"o":"m 1307 793 q 839 1165 1112 1165 q 350 982 565 1165 q 136 476 136 800 q 176 286 144 372 q 682 -14 329 -14 l 737 -14 q 1085 89 922 -14 q 1347 547 1347 279 l 1347 579 q 1307 793 1347 684 m 568 747 q 775 838 676 838 q 874 820 823 838 q 1030 571 1030 767 q 745 302 1030 339 l 674 302 q 460 460 460 329 l 460 484 q 514 701 460 656 q 568 747 568 747 m 682 1842 q 580 1794 651 1842 q 350 1383 350 1472 q 485 1225 379 1225 l 532 1225 q 706 1422 626 1225 l 714 1422 q 960 1225 851 1225 l 975 1225 q 1126 1375 1099 1225 l 1126 1415 q 967 1620 1126 1461 q 722 1842 845 1842 l 682 1842 "},"õ":{"ha":1482,"x_min":127,"x_max":1347,"o":"m 1307 793 q 839 1165 1112 1165 q 350 982 565 1165 q 136 476 136 800 q 176 286 144 372 q 682 -14 329 -14 l 737 -14 q 1085 89 922 -14 q 1347 547 1347 279 l 1347 579 q 1307 793 1347 684 m 568 747 q 775 838 676 838 q 874 820 823 838 q 1030 571 1030 767 q 745 302 1030 339 l 674 302 q 460 460 460 329 l 460 484 q 514 701 460 656 q 568 747 568 747 m 1093 1761 q 966 1697 1030 1761 q 863 1539 911 1550 l 847 1539 l 800 1579 q 507 1729 667 1729 l 459 1729 q 266 1669 365 1729 q 127 1436 166 1609 l 127 1428 q 262 1270 153 1270 l 316 1270 q 404 1318 375 1270 q 491 1413 444 1402 q 547 1373 498 1413 q 855 1215 686 1215 q 998 1246 941 1215 q 1259 1603 1259 1396 q 1108 1761 1234 1761 l 1093 1761 "},"ö":{"ha":1482,"x_min":136,"x_max":1347,"o":"m 1307 793 q 839 1165 1112 1165 q 350 982 565 1165 q 136 476 136 800 q 176 286 144 372 q 682 -14 329 -14 l 737 -14 q 1085 89 922 -14 q 1347 547 1347 279 l 1347 579 q 1307 793 1347 684 m 568 747 q 775 838 676 838 q 874 820 823 838 q 1030 571 1030 767 q 745 302 1030 339 l 674 302 q 460 460 460 329 l 460 484 q 514 701 460 656 q 568 747 568 747 m 509 1578 q 319 1404 358 1578 q 343 1324 319 1388 q 517 1222 395 1222 l 541 1222 q 692 1404 673 1222 q 509 1578 692 1547 m 932 1583 q 742 1409 781 1583 q 766 1329 742 1392 q 940 1227 818 1227 l 964 1227 q 1114 1409 1096 1227 q 932 1583 1114 1552 "},"÷":{"ha":1308,"x_min":136,"x_max":1173,"o":"m 840 785 q 302 737 606 785 q 136 579 136 716 q 294 421 136 448 l 318 421 q 729 469 597 469 q 1014 452 888 469 q 1054 460 1040 458 q 1173 611 1173 509 l 1173 618 q 935 785 1173 785 l 840 785 m 663 379 q 473 205 512 379 q 497 125 473 189 q 671 23 549 23 l 695 23 q 846 205 827 23 q 663 379 846 348 m 653 1203 q 463 1029 502 1203 q 487 949 463 1013 q 661 847 539 847 l 685 847 q 836 1029 817 847 q 653 1203 836 1172 "},"ø":{"ha":1482,"x_min":136,"x_max":1347,"o":"m 714 829 q 475 399 560 568 q 460 460 460 427 l 460 484 q 568 747 460 656 q 714 829 644 810 m 788 309 q 1005 705 882 498 q 1030 571 1030 649 q 788 309 1030 357 m 1196 966 q 1208 1013 1208 994 l 1208 1029 q 1066 1187 1208 1149 l 1034 1187 q 946 1150 994 1187 q 839 1165 894 1165 q 350 982 565 1165 q 136 476 136 800 q 176 286 144 372 q 371 66 250 140 q 512 -55 384 -31 l 536 -55 q 633 -13 585 -55 q 682 -14 656 -14 l 737 -14 q 1085 89 922 -14 q 1347 547 1347 279 l 1347 579 q 1307 793 1347 684 q 1196 966 1255 893 "},"ù":{"ha":1284,"x_min":136,"x_max":1149,"o":"m 983 1204 q 824 1094 884 1204 q 785 635 800 694 q 532 318 715 318 l 500 318 q 452 484 467 318 l 452 564 q 500 1015 452 779 q 501 1042 501 1029 q 397 1179 501 1162 q 332 1184 361 1184 q 239 1157 268 1184 q 136 540 136 1069 l 136 492 q 191 199 136 341 q 468 -6 307 -6 l 532 -6 q 817 89 664 -6 q 983 -22 885 -22 q 1133 128 1101 -22 l 1133 152 q 1101 516 1109 293 q 1149 1038 1109 679 q 983 1204 1149 1178 m 387 1790 q 345 1670 345 1723 q 391 1571 345 1613 l 409 1555 q 489 1514 429 1537 q 557 1388 538 1405 l 574 1372 q 667 1333 617 1333 q 787 1381 723 1333 l 803 1399 q 833 1457 826 1424 q 835 1492 835 1475 q 720 1754 835 1648 l 702 1770 q 509 1845 591 1845 q 387 1790 437 1845 "},"ú":{"ha":1284,"x_min":136,"x_max":1149,"o":"m 983 1204 q 824 1094 884 1204 q 785 635 800 694 q 532 318 715 318 l 500 318 q 452 484 467 318 l 452 564 q 500 1015 452 779 q 501 1042 501 1029 q 397 1179 501 1162 q 332 1184 361 1184 q 239 1157 268 1184 q 136 540 136 1069 l 136 492 q 191 199 136 341 q 468 -6 307 -6 l 532 -6 q 817 89 664 -6 q 983 -22 885 -22 q 1133 128 1101 -22 l 1133 152 q 1101 516 1109 293 q 1149 1038 1109 679 q 983 1204 1149 1178 m 956 1786 q 834 1841 905 1841 q 641 1766 751 1841 l 623 1750 q 508 1488 508 1644 q 509 1453 508 1471 q 540 1395 517 1420 l 556 1377 q 675 1329 620 1329 q 768 1368 726 1329 l 786 1384 q 854 1510 805 1401 q 934 1551 914 1533 l 951 1567 q 998 1666 998 1609 q 956 1786 998 1719 "},"û":{"ha":1284,"x_min":136,"x_max":1149,"o":"m 983 1204 q 824 1094 884 1204 q 785 635 800 694 q 532 318 715 318 l 500 318 q 452 484 467 318 l 452 564 q 500 1015 452 779 q 501 1042 501 1029 q 397 1179 501 1162 q 332 1184 361 1184 q 239 1157 268 1184 q 136 540 136 1069 l 136 492 q 191 199 136 341 q 468 -6 307 -6 l 532 -6 q 817 89 664 -6 q 983 -22 885 -22 q 1133 128 1101 -22 l 1133 152 q 1101 516 1109 293 q 1149 1038 1109 679 q 983 1204 1149 1178 m 583 1945 q 481 1898 552 1945 q 251 1486 251 1575 q 386 1328 280 1328 l 433 1328 q 607 1525 527 1328 l 615 1525 q 861 1328 752 1328 l 876 1328 q 1027 1478 1000 1328 l 1027 1518 q 868 1723 1027 1564 q 623 1945 746 1945 l 583 1945 "},"ü":{"ha":1284,"x_min":136,"x_max":1149,"o":"m 983 1204 q 824 1094 884 1204 q 785 635 800 694 q 532 318 715 318 l 500 318 q 452 484 467 318 l 452 564 q 500 1015 452 779 q 501 1042 501 1029 q 397 1179 501 1162 q 332 1184 361 1184 q 239 1157 268 1184 q 136 540 136 1069 l 136 492 q 191 199 136 341 q 468 -6 307 -6 l 532 -6 q 817 89 664 -6 q 983 -22 885 -22 q 1133 128 1101 -22 l 1133 152 q 1101 516 1109 293 q 1149 1038 1109 679 q 983 1204 1149 1178 m 410 1681 q 220 1507 259 1681 q 244 1428 220 1491 q 418 1325 296 1325 l 442 1325 q 593 1507 574 1325 q 410 1681 593 1650 m 833 1686 q 643 1512 682 1686 q 667 1432 643 1495 q 841 1330 719 1330 l 865 1330 q 1015 1512 997 1330 q 833 1686 1015 1655 "},"ý":{"ha":1388,"x_min":136,"x_max":1252,"o":"m 1093 1173 q 666 832 973 1173 l 650 840 q 310 1149 421 1149 l 286 1149 q 136 991 163 1149 q 176 888 136 945 l 492 547 l 492 437 q 476 120 492 265 q 642 -46 476 -14 q 767 0 709 -42 q 825 416 825 43 q 824 547 825 477 q 1069 793 1067 781 q 1252 1015 1252 910 q 1093 1173 1252 1154 m 1007 1754 q 886 1809 957 1809 q 692 1734 803 1809 l 675 1718 q 559 1456 559 1612 q 561 1421 559 1439 q 591 1363 568 1388 l 608 1345 q 727 1297 671 1297 q 820 1336 777 1297 l 838 1352 q 905 1478 857 1369 q 985 1519 966 1501 l 1003 1535 q 1049 1634 1049 1577 q 1007 1754 1049 1687 "},"þ":{"ha":1308,"x_min":136,"x_max":1173,"o":"m 508 523 l 508 705 q 610 776 513 776 l 690 776 q 853 646 848 744 q 854 633 854 640 q 818 542 854 579 q 634 499 777 499 q 508 523 508 499 m 491 1080 q 484 1149 488 1113 q 294 1419 458 1419 q 136 1261 170 1419 q 183 928 183 1062 q 208 143 205 181 q 215 -39 215 -1 q 373 -197 239 -197 q 468 -165 410 -197 q 547 1 547 -85 q 539 182 547 37 l 642 182 q 785 198 706 182 q 1173 642 1173 326 q 1156 752 1173 692 q 658 1101 1015 1101 q 491 1080 580 1101 "},"ÿ":{"ha":1388,"x_min":136,"x_max":1252,"o":"m 1093 1173 q 666 832 973 1173 l 650 840 q 310 1149 421 1149 l 286 1149 q 136 991 163 1149 q 176 888 136 945 l 492 547 l 492 437 q 476 120 492 265 q 642 -46 476 -14 q 767 0 709 -42 q 825 416 825 43 q 824 547 825 477 q 1069 793 1067 781 q 1252 1015 1252 910 q 1093 1173 1252 1154 m 462 1649 q 272 1475 311 1649 q 296 1396 272 1459 q 470 1293 348 1293 l 494 1293 q 644 1475 626 1293 q 462 1649 644 1618 m 884 1654 q 694 1480 733 1654 q 718 1400 694 1463 q 892 1298 770 1298 l 916 1298 q 1067 1480 1048 1298 q 884 1654 1067 1623 "},"̀":{"ha":761,"x_min":136,"x_max":625,"o":"m 178 1687 q 136 1567 136 1620 q 182 1468 136 1510 l 199 1452 q 279 1411 219 1434 q 347 1285 328 1302 l 365 1269 q 458 1230 408 1230 q 577 1278 513 1230 l 593 1296 q 624 1354 616 1321 q 625 1389 625 1372 q 510 1651 625 1545 l 492 1667 q 299 1742 382 1742 q 178 1687 228 1742 "},"́":{"ha":761,"x_min":136,"x_max":625,"o":"m 583 1683 q 462 1737 533 1737 q 269 1663 379 1737 l 251 1647 q 136 1385 136 1541 q 137 1350 136 1368 q 168 1292 144 1317 l 184 1274 q 303 1225 248 1225 q 396 1265 353 1225 l 414 1281 q 481 1407 433 1298 q 562 1448 542 1430 l 579 1464 q 625 1563 625 1506 q 583 1683 625 1616 "},"̂":{"ha":1047,"x_min":136,"x_max":911,"o":"m 468 1842 q 366 1794 437 1842 q 136 1383 136 1472 q 271 1225 165 1225 l 318 1225 q 492 1422 412 1225 l 500 1422 q 745 1225 637 1225 l 761 1225 q 911 1375 884 1225 l 911 1415 q 753 1620 911 1461 q 508 1842 631 1842 l 468 1842 "},"̃":{"ha":1403,"x_min":132,"x_max":1264,"o":"m 1098 1761 q 971 1697 1036 1761 q 868 1539 917 1550 l 852 1539 l 805 1579 q 512 1729 672 1729 l 465 1729 q 271 1669 370 1729 q 132 1436 172 1609 l 132 1428 q 267 1270 159 1270 l 321 1270 q 410 1318 380 1270 q 496 1413 450 1402 q 552 1373 504 1413 q 861 1215 691 1215 q 1003 1246 947 1215 q 1264 1603 1264 1396 q 1114 1761 1240 1761 l 1098 1761 "},"̄":{"ha":1308,"x_min":136,"x_max":1173,"o":"m 840 1666 q 302 1618 606 1666 q 136 1460 136 1597 q 294 1302 136 1329 l 318 1302 q 729 1350 597 1350 q 1014 1333 888 1350 q 1054 1341 1040 1339 q 1173 1492 1173 1390 l 1173 1499 q 935 1666 1173 1666 l 840 1666 "},"̅":{"ha":1308,"x_min":136,"x_max":1173,"o":"m 840 1666 q 302 1618 606 1666 q 136 1460 136 1597 q 294 1302 136 1329 l 318 1302 q 729 1350 597 1350 q 1014 1333 888 1350 q 1054 1341 1040 1339 q 1173 1492 1173 1390 l 1173 1499 q 935 1666 1173 1666 l 840 1666 "},"̆":{"ha":842,"x_min":136,"x_max":707,"o":"m 704 1407 q 556 1542 658 1542 q 530 1540 544 1542 l 507 1536 q 425 1499 481 1532 q 292 1525 323 1525 q 284 1525 287 1525 l 260 1521 q 136 1349 139 1501 l 140 1325 q 165 1265 145 1291 q 408 1164 273 1164 q 469 1170 437 1164 l 492 1173 q 707 1377 707 1240 q 704 1407 707 1391 "},"̇":{"ha":644,"x_min":136,"x_max":508,"o":"m 326 1578 q 136 1404 174 1578 q 159 1324 136 1388 q 334 1222 212 1222 l 357 1222 q 508 1404 490 1222 q 326 1578 508 1547 "},"̈":{"ha":1066,"x_min":136,"x_max":930,"o":"m 326 1578 q 136 1404 174 1578 q 159 1324 136 1388 q 334 1222 212 1222 l 357 1222 q 508 1404 490 1222 q 326 1578 508 1547 m 748 1583 q 558 1409 597 1583 q 582 1329 558 1392 q 756 1227 634 1227 l 780 1227 q 930 1409 912 1227 q 748 1583 930 1552 "},"̉":{"ha":651,"x_min":136,"x_max":515,"o":"m 414 1122 q 515 1371 479 1126 l 515 1395 q 373 1680 515 1569 q 290 1698 335 1697 l 286 1698 q 221 1690 255 1698 q 136 1607 136 1669 q 212 1511 136 1545 q 326 1387 288 1476 q 301 1261 306 1310 q 296 1206 296 1212 q 414 1122 296 1127 "},"̊":{"ha":644,"x_min":136,"x_max":508,"o":"m 326 1645 q 136 1471 174 1645 q 159 1392 136 1455 q 334 1289 212 1289 l 357 1289 q 508 1471 490 1289 q 326 1645 508 1614 m 326 1563 q 425 1470 425 1546 q 344 1372 414 1372 l 331 1372 q 237 1427 265 1372 q 224 1470 224 1461 q 326 1563 245 1563 "},"̋":{"ha":1015,"x_min":136,"x_max":880,"o":"m 286 1731 q 136 1565 165 1731 l 136 1375 q 144 1288 136 1342 q 286 1161 188 1161 l 310 1161 q 460 1415 460 1161 l 460 1557 q 326 1731 439 1731 l 286 1731 m 705 1731 q 610 1691 654 1731 q 508 1327 574 1691 q 658 1169 532 1169 l 666 1169 q 786 1201 748 1169 q 880 1573 825 1232 q 737 1731 856 1731 l 705 1731 "},"̌":{"ha":842,"x_min":136,"x_max":707,"o":"m 704 1407 q 556 1542 658 1542 q 530 1540 544 1542 l 507 1536 q 425 1499 481 1532 q 292 1525 323 1525 q 284 1525 287 1525 l 260 1521 q 136 1349 139 1501 l 140 1325 q 165 1265 145 1291 q 408 1164 273 1164 q 469 1170 437 1164 l 492 1173 q 707 1377 707 1240 q 704 1407 707 1391 "},"̧":{"ha":651,"x_min":136,"x_max":515,"o":"m 414 123 q 296 40 296 119 q 296 28 296 34 q 326 -141 306 -64 q 212 -265 288 -231 q 136 -361 136 -299 q 221 -444 136 -423 q 286 -452 255 -452 l 290 -452 q 373 -434 335 -452 q 515 -149 515 -323 l 515 -125 q 414 123 479 120 "},"؉":{"ha":1651,"x_min":136,"x_max":1516,"o":"m 1078 1086 q 753 872 1002 1086 q 251 365 366 519 q 136 128 136 211 l 136 120 q 278 -30 162 -30 l 310 -30 q 587 262 410 -30 q 1030 698 784 521 q 1236 911 1236 810 l 1236 935 q 1078 1086 1236 1059 m 373 1054 q 168 864 168 1004 q 248 709 191 730 q 360 687 305 687 q 405 690 382 687 q 563 840 512 690 l 563 896 q 405 1054 563 1023 l 373 1054 m 911 469 q 737 271 776 469 q 911 96 737 125 l 943 96 q 1109 286 1057 96 l 1109 294 q 951 469 1086 469 l 911 469 m 1318 472 q 1144 274 1183 472 q 1318 100 1144 128 l 1350 100 q 1516 290 1463 100 l 1516 298 q 1358 472 1493 472 l 1318 472 "},"ˆ":{"ha":1047,"x_min":136,"x_max":911,"o":"m 468 1842 q 366 1794 437 1842 q 136 1383 136 1472 q 271 1225 165 1225 l 318 1225 q 492 1422 412 1225 l 500 1422 q 745 1225 637 1225 l 761 1225 q 911 1375 884 1225 l 911 1415 q 753 1620 911 1461 q 508 1842 631 1842 l 468 1842 "}}}
